<svg xmlns="http://www.w3.org/2000/svg" xmlns:xlink="http://www.w3.org/1999/xlink" width="500" zoomAndPan="magnify" viewBox="0 0 375 374.999991" height="500" preserveAspectRatio="xMidYMid meet" version="1.0"><defs><g/><clipPath id="4ecd29b586"><path d="M 94.890625 94.890625 L 280.140625 94.890625 L 280.140625 280.140625 L 94.890625 280.140625 Z M 94.890625 94.890625 " clip-rule="nonzero"/></clipPath></defs><path fill="#ffffff" d="M 278.28125 187.488281 C 278.28125 137.347656 237.632812 96.699219 187.488281 96.699219 C 137.347656 96.699219 96.699219 137.347656 96.699219 187.488281 C 96.699219 237.632812 137.347656 278.28125 187.488281 278.28125 C 237.632812 278.28125 278.28125 237.632812 278.28125 187.488281 " fill-opacity="1" fill-rule="nonzero"/><g clip-path="url(#4ecd29b586)"><path fill="#000000" d="M 187.488281 98.503906 C 138.421875 98.503906 98.503906 138.421875 98.503906 187.488281 C 98.503906 236.554688 138.421875 276.476562 187.488281 276.476562 C 236.554688 276.476562 276.476562 236.554688 276.476562 187.488281 C 276.476562 138.421875 236.554688 98.503906 187.488281 98.503906 Z M 187.488281 280.085938 C 162.753906 280.085938 139.503906 270.453125 122.011719 252.964844 C 104.523438 235.476562 94.890625 212.222656 94.890625 187.488281 C 94.890625 162.753906 104.523438 139.503906 122.011719 122.011719 C 139.503906 104.523438 162.753906 94.890625 187.488281 94.890625 C 212.222656 94.890625 235.476562 104.523438 252.964844 122.011719 C 270.453125 139.503906 280.085938 162.753906 280.085938 187.488281 C 280.085938 212.222656 270.453125 235.476562 252.964844 252.964844 C 235.476562 270.453125 212.222656 280.085938 187.488281 280.085938 " fill-opacity="1" fill-rule="nonzero"/></g><path fill="#ffffff" d="M 270.644531 187.488281 C 270.644531 141.5625 233.414062 104.332031 187.488281 104.332031 C 141.5625 104.332031 104.332031 141.5625 104.332031 187.488281 C 104.332031 233.414062 141.5625 270.644531 187.488281 270.644531 C 233.414062 270.644531 270.644531 233.414062 270.644531 187.488281 " fill-opacity="1" fill-rule="nonzero"/><path fill="#ffffff" d="M 264.660156 187.488281 C 264.660156 144.867188 230.109375 110.316406 187.488281 110.316406 C 144.867188 110.316406 110.316406 144.867188 110.316406 187.488281 C 110.316406 230.109375 144.867188 264.660156 187.488281 264.660156 C 230.109375 264.660156 264.660156 230.109375 264.660156 187.488281 " fill-opacity="1" fill-rule="nonzero"/><path fill="#000000" d="M 245.867188 197.1875 C 242.445312 192.484375 233.789062 196.875 219.457031 204.15625 L 218.011719 204.886719 C 217.121094 205.339844 216.765625 206.425781 217.21875 207.3125 C 217.667969 208.203125 218.753906 208.558594 219.644531 208.109375 L 221.09375 207.375 C 227.328125 204.207031 232.714844 201.472656 236.753906 200 C 241.527344 198.257812 242.671875 198.9375 242.945312 199.308594 C 243.421875 199.96875 243.558594 200.601562 243.390625 201.359375 C 242.839844 203.816406 239.101562 208.441406 224.398438 216.527344 C 209.847656 224.523438 199.050781 228.667969 193.164062 228.496094 C 187.402344 228.335938 182.332031 226.953125 175.667969 223.730469 C 173.269531 222.570312 171.132812 221.480469 169.136719 220.40625 C 169.125 220.398438 169.113281 220.394531 169.101562 220.386719 C 169.046875 220.355469 168.988281 220.324219 168.933594 220.292969 L 168.164062 219.878906 C 162.625 216.992188 155.402344 216.082031 149.066406 215.574219 C 148.070312 215.5 147.203125 216.238281 147.125 217.230469 C 147.042969 218.226562 147.785156 219.09375 148.777344 219.175781 C 154.753906 219.652344 161.53125 220.492188 166.460938 223.058594 L 167.214844 223.472656 C 167.269531 223.5 167.324219 223.527344 167.375 223.558594 C 167.414062 223.582031 167.453125 223.605469 167.496094 223.625 C 169.515625 224.710938 171.675781 225.808594 174.097656 226.980469 C 181.253906 230.445312 186.75 231.929688 193.0625 232.105469 C 193.203125 232.109375 193.347656 232.113281 193.492188 232.113281 C 200.160156 232.113281 211.136719 227.9375 226.136719 219.691406 C 239.25 212.480469 245.851562 206.90625 246.914062 202.144531 C 247.3125 200.363281 246.960938 198.691406 245.867188 197.1875 " fill-opacity="1" fill-rule="nonzero"/><path fill="#000000" d="M 149.320312 193.585938 C 152.140625 192.949219 155.128906 192.105469 158.460938 191.007812 C 162.644531 189.628906 167.664062 188.320312 173.167969 189.042969 C 176.964844 189.542969 180.402344 191.757812 184.042969 194.101562 C 186.828125 195.894531 189.707031 197.75 193.070312 199.105469 C 204.679688 203.789062 212.328125 210.691406 211.410156 213.734375 C 211.144531 214.613281 210.777344 214.898438 210.484375 215.050781 C 208.628906 216 203.863281 214.371094 198.347656 212.484375 C 196.921875 211.996094 195.5625 211.515625 194.242188 211.042969 C 187.703125 208.71875 182.054688 206.710938 173.941406 206.066406 C 172.949219 205.984375 172.078125 206.726562 172 207.71875 C 171.917969 208.714844 172.660156 209.585938 173.65625 209.664062 C 181.292969 210.273438 186.734375 212.207031 193.03125 214.445312 C 194.367188 214.921875 195.738281 215.410156 197.179688 215.902344 C 202.089844 217.578125 206.019531 218.925781 209.035156 218.925781 C 210.203125 218.925781 211.234375 218.722656 212.132812 218.261719 C 213.453125 217.582031 214.375 216.410156 214.867188 214.777344 C 216.992188 207.730469 203.804688 199.542969 194.417969 195.757812 C 191.375 194.53125 188.640625 192.769531 186 191.066406 C 182.007812 188.496094 178.242188 186.066406 173.636719 185.460938 C 167.378906 184.640625 161.636719 186.160156 157.332031 187.578125 C 154.109375 188.636719 151.230469 189.453125 148.523438 190.066406 C 147.550781 190.285156 146.941406 191.253906 147.160156 192.226562 C 147.382812 193.199219 148.351562 193.808594 149.320312 193.585938 " fill-opacity="1" fill-rule="nonzero"/><path fill="#000000" d="M 156.96875 170.089844 C 157.855469 169.640625 158.210938 168.550781 157.761719 167.664062 C 157.308594 166.773438 156.222656 166.417969 155.332031 166.871094 L 153.890625 167.601562 C 147.648438 170.769531 142.265625 173.507812 138.226562 174.976562 C 133.449219 176.71875 132.304688 176.039062 132.03125 175.667969 C 131.554688 175.011719 131.417969 174.378906 131.585938 173.617188 C 132.136719 171.164062 135.878906 166.539062 150.582031 158.453125 C 165.128906 150.457031 175.933594 146.316406 181.8125 146.480469 C 187.578125 146.644531 192.644531 148.023438 199.308594 151.25 C 201.707031 152.40625 203.84375 153.496094 205.84375 154.574219 C 205.851562 154.578125 205.863281 154.585938 205.875 154.589844 C 205.929688 154.621094 205.988281 154.652344 206.046875 154.683594 L 206.816406 155.101562 C 212.351562 157.988281 219.574219 158.894531 225.914062 159.402344 C 226.910156 159.484375 227.777344 158.742188 227.855469 157.75 C 227.9375 156.753906 227.195312 155.882812 226.203125 155.804688 C 220.226562 155.324219 213.449219 154.488281 208.519531 151.917969 L 207.765625 151.507812 C 207.710938 151.480469 207.65625 151.453125 207.609375 151.421875 C 207.566406 151.398438 207.527344 151.375 207.484375 151.355469 C 205.457031 150.265625 203.296875 149.167969 200.882812 148 C 193.722656 144.535156 188.226562 143.050781 181.914062 142.871094 C 175.292969 142.6875 164.167969 146.863281 148.839844 155.289062 C 135.730469 162.496094 129.128906 168.070312 128.0625 172.832031 C 127.664062 174.617188 128.019531 176.285156 129.113281 177.792969 C 130.09375 179.140625 131.503906 179.738281 133.355469 179.738281 C 137.960938 179.738281 145.296875 176.015625 155.523438 170.824219 L 156.96875 170.089844 " fill-opacity="1" fill-rule="nonzero"/><path fill="#000000" d="M 164.496094 159.929688 C 166.347656 158.976562 171.113281 160.609375 176.628906 162.492188 C 178.058594 162.980469 179.414062 163.464844 180.738281 163.933594 C 187.277344 166.261719 192.925781 168.265625 201.035156 168.914062 C 202.023438 168.992188 202.902344 168.253906 202.980469 167.257812 C 203.058594 166.261719 202.316406 165.394531 201.324219 165.3125 C 193.6875 164.707031 188.246094 162.769531 181.949219 160.53125 C 180.613281 160.058594 179.238281 159.570312 177.800781 159.078125 C 170.988281 156.75 166.066406 155.066406 162.847656 156.714844 C 161.523438 157.394531 160.605469 158.570312 160.113281 160.203125 C 157.988281 167.25 171.175781 175.4375 180.558594 179.222656 C 183.601562 180.449219 186.335938 182.207031 188.980469 183.910156 C 192.96875 186.484375 196.738281 188.914062 201.339844 189.515625 C 202.5625 189.675781 203.765625 189.75 204.941406 189.75 C 209.789062 189.75 214.183594 188.542969 217.644531 187.402344 C 220.867188 186.339844 223.75 185.527344 226.457031 184.914062 C 227.429688 184.691406 228.039062 183.726562 227.816406 182.75 C 227.597656 181.777344 226.628906 181.171875 225.65625 181.390625 C 222.839844 182.03125 219.847656 182.875 216.515625 183.972656 C 212.332031 185.347656 207.3125 186.660156 201.808594 185.9375 C 198.011719 185.4375 194.574219 183.222656 190.9375 180.875 C 188.148438 179.082031 185.269531 177.226562 181.910156 175.871094 C 170.300781 171.191406 162.652344 164.285156 163.570312 161.242188 C 163.832031 160.363281 164.203125 160.078125 164.496094 159.929688 " fill-opacity="1" fill-rule="nonzero"/><path fill="#bd987a" d="M 147.117188 218.363281 C 147.117188 219.675781 146.046875 220.746094 144.730469 220.746094 L 138.90625 220.746094 C 137.59375 220.746094 136.523438 219.675781 136.523438 218.363281 L 136.523438 191.6875 C 136.523438 190.371094 137.59375 189.304688 138.90625 189.304688 L 144.730469 189.304688 C 146.046875 189.304688 147.117188 190.371094 147.117188 191.6875 Z M 144.730469 185.691406 L 138.90625 185.691406 C 135.601562 185.691406 132.910156 188.378906 132.910156 191.6875 L 132.910156 218.363281 C 132.910156 221.667969 135.601562 224.355469 138.90625 224.355469 L 144.730469 224.355469 C 148.039062 224.355469 150.726562 221.667969 150.726562 218.363281 L 150.726562 191.6875 C 150.726562 188.378906 148.039062 185.691406 144.730469 185.691406 " fill-opacity="1" fill-rule="nonzero"/><path fill="#bd987a" d="M 141.820312 193.917969 C 140.824219 193.917969 140.015625 194.726562 140.015625 195.722656 L 140.015625 196.320312 C 140.015625 197.316406 140.824219 198.125 141.820312 198.125 C 142.816406 198.125 143.625 197.316406 143.625 196.320312 L 143.625 195.722656 C 143.625 194.726562 142.816406 193.917969 141.820312 193.917969 " fill-opacity="1" fill-rule="nonzero"/><path fill="#bd987a" d="M 238.457031 183.292969 C 238.457031 184.605469 237.386719 185.675781 236.070312 185.675781 L 230.246094 185.675781 C 228.933594 185.675781 227.863281 184.605469 227.863281 183.292969 L 227.863281 156.613281 C 227.863281 155.300781 228.933594 154.230469 230.246094 154.230469 L 236.070312 154.230469 C 237.386719 154.230469 238.457031 155.300781 238.457031 156.613281 Z M 236.070312 150.621094 L 230.246094 150.621094 C 226.941406 150.621094 224.25 153.308594 224.25 156.613281 L 224.25 183.292969 C 224.25 186.597656 226.941406 189.285156 230.246094 189.285156 L 236.070312 189.285156 C 239.378906 189.285156 242.066406 186.597656 242.066406 183.292969 L 242.066406 156.613281 C 242.066406 153.308594 239.378906 150.621094 236.070312 150.621094 " fill-opacity="1" fill-rule="nonzero"/><g fill="#000000" fill-opacity="1"><g transform="translate(122.860727, 153.330667)"><g><path d="M 3.03125 -4.90625 C 2.925781 -4.769531 2.773438 -4.539062 2.578125 -4.21875 L 2.140625 -3.5 C 2.054688 -3.375 1.992188 -3.253906 1.953125 -3.140625 L 1.9375 -3.15625 C 1.914062 -3.195312 1.882812 -3.226562 1.84375 -3.25 C 1.8125 -3.269531 1.769531 -3.285156 1.71875 -3.296875 C 1.664062 -3.316406 1.570312 -3.347656 1.4375 -3.390625 C 1.300781 -3.429688 1.101562 -3.488281 0.84375 -3.5625 L -0.21875 -3.8125 L -8.71875 -5.640625 C -8.53125 -5.898438 -8.304688 -6.238281 -8.046875 -6.65625 C -7.785156 -7.082031 -7.632812 -7.367188 -7.59375 -7.515625 L -0.34375 -5.8125 L -5.296875 -11.25 C -5.109375 -11.5 -4.898438 -11.816406 -4.671875 -12.203125 C -4.335938 -12.734375 -4.160156 -13.054688 -4.140625 -13.171875 L 1.390625 -6.484375 C 1.390625 -6.484375 1.59375 -6.242188 2 -5.765625 C 2.375 -5.367188 2.625 -5.128906 2.75 -5.046875 C 2.882812 -4.972656 2.972656 -4.9375 3.015625 -4.9375 Z M 3.03125 -4.90625 "/></g></g></g><g fill="#000000" fill-opacity="1"><g transform="translate(130.04425, 142.096106)"><g><path d="M 0.59375 -2.4375 C -0.0507812 -2.40625 -0.695312 -2.503906 -1.34375 -2.734375 C -2 -2.960938 -2.601562 -3.332031 -3.15625 -3.84375 C -3.707031 -4.351562 -4.140625 -4.929688 -4.453125 -5.578125 C -4.773438 -6.222656 -4.960938 -6.894531 -5.015625 -7.59375 C -5.078125 -8.289062 -4.988281 -8.984375 -4.75 -9.671875 C -4.519531 -10.367188 -4.117188 -11.019531 -3.546875 -11.625 C -2.578125 -12.675781 -1.429688 -13.253906 -0.109375 -13.359375 C 1.304688 -13.460938 2.613281 -12.957031 3.8125 -11.84375 C 4.96875 -10.769531 5.566406 -9.476562 5.609375 -7.96875 C 5.640625 -7.03125 5.429688 -6.144531 4.984375 -5.3125 C 4.753906 -4.90625 4.429688 -4.484375 4.015625 -4.046875 C 3.609375 -3.609375 3.097656 -3.238281 2.484375 -2.9375 C 1.867188 -2.632812 1.238281 -2.46875 0.59375 -2.4375 Z M -1.765625 -5.5 C -1.410156 -5.164062 -1.03125 -4.921875 -0.625 -4.765625 C -0.226562 -4.609375 0.175781 -4.539062 0.59375 -4.5625 C 1.445312 -4.570312 2.203125 -4.929688 2.859375 -5.640625 C 3.472656 -6.296875 3.753906 -7.023438 3.703125 -7.828125 C 3.648438 -8.648438 3.238281 -9.421875 2.46875 -10.140625 C 1.75 -10.804688 0.960938 -11.171875 0.109375 -11.234375 C -0.796875 -11.285156 -1.585938 -10.945312 -2.265625 -10.21875 C -2.921875 -9.507812 -3.1875 -8.707031 -3.0625 -7.8125 C -2.9375 -6.957031 -2.503906 -6.1875 -1.765625 -5.5 Z M -1.765625 -5.5 "/></g></g></g><g fill="#000000" fill-opacity="1"><g transform="translate(141.406338, 130.811296)"><g><path d="M 2.296875 -1.703125 C 1.679688 -1.242188 1.285156 -0.929688 1.109375 -0.765625 L -5.09375 -9.15625 C -4.96875 -9.195312 -4.75 -9.332031 -4.4375 -9.5625 C -4.125 -9.800781 -3.769531 -10.082031 -3.375 -10.40625 L 1.6875 -3.5625 L 2.96875 -4.515625 C 3.351562 -4.796875 3.644531 -5.03125 3.84375 -5.21875 C 4.539062 -4.226562 4.90625 -3.710938 4.9375 -3.671875 L 4.984375 -3.625 C 4.546875 -3.34375 3.847656 -2.847656 2.890625 -2.140625 Z M 2.296875 -1.703125 "/></g></g></g><g fill="#000000" fill-opacity="1"><g transform="translate(150.18907, 124.557895)"><g><path d="M 1.875 -12.515625 C 2.164062 -12.640625 2.40625 -12.75 2.59375 -12.84375 L 3.171875 -13.125 C 3.367188 -13.21875 3.566406 -13.335938 3.765625 -13.484375 L 6.625 -7.71875 C 7.1875 -6.570312 7.289062 -5.484375 6.9375 -4.453125 C 6.613281 -3.472656 5.957031 -2.738281 4.96875 -2.25 C 3.882812 -1.71875 2.867188 -1.566406 1.921875 -1.796875 C 0.867188 -2.046875 0.046875 -2.769531 -0.546875 -3.96875 L -3.46875 -9.859375 C -3.082031 -10.023438 -2.710938 -10.191406 -2.359375 -10.359375 C -2.015625 -10.535156 -1.75 -10.695312 -1.5625 -10.84375 L 1.421875 -4.8125 C 1.710938 -4.238281 2.117188 -3.882812 2.640625 -3.75 C 3.117188 -3.613281 3.609375 -3.664062 4.109375 -3.90625 C 4.847656 -4.28125 5.15625 -4.90625 5.03125 -5.78125 C 4.988281 -6.101562 4.867188 -6.46875 4.671875 -6.875 Z M 1.875 -12.515625 "/></g></g></g><g fill="#000000" fill-opacity="1"><g transform="translate(163.517939, 118.401456)"><g><path d="M 1.359375 -0.359375 C 1.347656 -0.535156 1.316406 -0.726562 1.265625 -0.9375 L -1.25 -10.375 L 0.265625 -10.765625 L 5.90625 -5.5625 L 4.375 -11.3125 C 4.300781 -11.582031 4.226562 -11.75 4.15625 -11.8125 L 6.1875 -12.34375 C 6.21875 -12.132812 6.269531 -11.90625 6.34375 -11.65625 L 8.8125 -2.328125 L 7.25 -1.921875 L 1.734375 -6.90625 L 3.328125 -0.875 Z M 1.359375 -0.359375 "/></g></g></g><g fill="#000000" fill-opacity="1"><g transform="translate(177.802037, 115.126522)"><g><path d="M 5.046875 -0.328125 C 4.804688 -0.347656 4.171875 -0.316406 3.140625 -0.234375 L 2.890625 -0.21875 L 2.25 -8.78125 L 0.71875 -8.671875 C 0.257812 -8.628906 -0.0078125 -8.582031 -0.09375 -8.53125 C -0.175781 -8.476562 -0.234375 -8.4375 -0.265625 -8.40625 L -0.296875 -8.40625 L -0.453125 -10.40625 L -0.421875 -10.421875 C -0.253906 -10.378906 0.203125 -10.382812 0.953125 -10.4375 L 5.8125 -10.8125 C 6.269531 -10.84375 6.539062 -10.882812 6.625 -10.9375 C 6.707031 -10.988281 6.769531 -11.035156 6.8125 -11.078125 L 6.828125 -11.078125 L 6.984375 -9.078125 L 6.96875 -9.0625 C 6.789062 -9.09375 6.328125 -9.082031 5.578125 -9.03125 L 4.40625 -8.9375 Z M 5.046875 -0.328125 "/></g></g></g><g fill="#000000" fill-opacity="1"><g transform="translate(189.914311, 114.561684)"><g><path d="M 6.671875 -1.25 C 6.992188 -1.21875 7.21875 -1.226562 7.34375 -1.28125 L 7.375 -1.28125 L 7.125 0.65625 L 1.34375 0.125 L 2.296875 -10.21875 C 2.429688 -10.195312 2.582031 -10.175781 2.75 -10.15625 L 3.28125 -10.09375 C 3.644531 -10.050781 4.039062 -10.007812 4.46875 -9.96875 C 5.65625 -9.863281 6.820312 -9.78125 7.96875 -9.71875 C 7.875 -9.257812 7.789062 -8.65625 7.71875 -7.90625 C 7.71875 -7.820312 7.71875 -7.757812 7.71875 -7.71875 L 7.703125 -7.6875 C 7.441406 -7.800781 7.0625 -7.878906 6.5625 -7.921875 L 4.125 -8.140625 L 3.9375 -6.15625 L 5.78125 -5.984375 C 6.34375 -5.929688 6.679688 -5.914062 6.796875 -5.9375 L 6.65625 -4.03125 C 6.40625 -4.082031 6.085938 -4.128906 5.703125 -4.171875 L 3.765625 -4.34375 L 3.515625 -1.53125 Z M 6.671875 -1.25 "/></g></g></g><g fill="#000000" fill-opacity="1"><g transform="translate(201.952039, 116.017426)"><g><path d="M 6.78125 -0.125 C 7.09375 -0.0390625 7.320312 -0.015625 7.46875 -0.046875 L 7.5 -0.046875 L 6.921875 1.828125 L 1.296875 0.34375 L 3.953125 -9.703125 C 4.085938 -9.660156 4.234375 -9.617188 4.390625 -9.578125 L 4.921875 -9.421875 C 5.265625 -9.316406 5.640625 -9.207031 6.046875 -9.09375 C 7.203125 -8.789062 8.34375 -8.515625 9.46875 -8.265625 C 9.300781 -7.828125 9.117188 -7.242188 8.921875 -6.515625 C 8.898438 -6.429688 8.890625 -6.367188 8.890625 -6.328125 L 8.875 -6.296875 C 8.632812 -6.453125 8.273438 -6.59375 7.796875 -6.71875 L 5.421875 -7.34375 L 4.90625 -5.421875 L 6.6875 -4.953125 C 7.238281 -4.804688 7.578125 -4.734375 7.703125 -4.734375 L 7.25 -2.859375 C 7 -2.960938 6.6875 -3.0625 6.3125 -3.15625 L 4.4375 -3.65625 L 3.71875 -0.9375 Z M 6.78125 -0.125 "/></g></g></g><g fill="#000000" fill-opacity="1"><g transform="translate(213.571118, 119.407651)"><g><path d="M 5.9375 -1.671875 C 5.800781 -1.722656 5.648438 -1.785156 5.484375 -1.859375 C 5.328125 -1.929688 5.09375 -2.0625 4.78125 -2.25 L 3.078125 1.421875 L 1.21875 0.5625 L 5.59375 -8.859375 C 6.289062 -8.640625 7.117188 -8.304688 8.078125 -7.859375 C 9.378906 -7.253906 10.238281 -6.5625 10.65625 -5.78125 C 11.082031 -5.007812 11.0625 -4.125 10.59375 -3.125 C 10.226562 -2.332031 9.617188 -1.796875 8.765625 -1.515625 C 8.492188 -1.441406 8.207031 -1.390625 7.90625 -1.359375 L 7.921875 2.328125 C 7.921875 3.097656 7.96875 3.570312 8.0625 3.75 L 8.015625 3.78125 C 7.585938 3.488281 6.863281 3.160156 5.84375 2.796875 Z M 7.421875 -6.140625 C 7.191406 -6.253906 6.957031 -6.351562 6.71875 -6.4375 L 5.46875 -3.734375 C 5.695312 -3.585938 5.960938 -3.441406 6.265625 -3.296875 C 6.578125 -3.160156 6.847656 -3.066406 7.078125 -3.015625 C 7.316406 -2.972656 7.546875 -2.972656 7.765625 -3.015625 C 8.203125 -3.109375 8.535156 -3.40625 8.765625 -3.90625 C 9.003906 -4.40625 8.992188 -4.835938 8.734375 -5.203125 C 8.492188 -5.535156 8.054688 -5.847656 7.421875 -6.140625 Z M 7.421875 -6.140625 "/></g></g></g><g fill="#000000" fill-opacity="1"><g transform="translate(225.541316, 125.323102)"><g><path d="M 2.75 2.046875 C 2.363281 1.734375 1.894531 1.375 1.34375 0.96875 L 1.15625 0.828125 L 7.25 -7.578125 C 7.476562 -7.367188 7.648438 -7.222656 7.765625 -7.140625 L 8.03125 -6.953125 C 8.351562 -6.710938 8.640625 -6.53125 8.890625 -6.40625 L 6.453125 -3.0625 L 9.421875 -0.921875 L 11.84375 -4.25 C 12.164062 -3.976562 12.488281 -3.722656 12.8125 -3.484375 C 13.144531 -3.242188 13.367188 -3.109375 13.484375 -3.078125 L 7.34375 5.375 C 7.164062 5.207031 6.78125 4.910156 6.1875 4.484375 L 5.75 4.15625 L 8.328125 0.59375 L 5.359375 -1.546875 Z M 2.75 2.046875 "/></g></g></g><g fill="#000000" fill-opacity="1"><g transform="translate(237.161664, 134.244613)"><g><path d="M 12.53125 -1.6875 C 12.738281 -1.425781 12.910156 -1.21875 13.046875 -1.0625 L 13.484375 -0.59375 C 13.628906 -0.425781 13.800781 -0.269531 14 -0.125 L 9.25 4.21875 C 8.3125 5.082031 7.300781 5.488281 6.21875 5.4375 C 5.175781 5.382812 4.285156 4.953125 3.546875 4.140625 C 2.722656 3.253906 2.289062 2.328125 2.25 1.359375 C 2.207031 0.265625 2.675781 -0.726562 3.65625 -1.625 L 8.5 -6.078125 C 8.769531 -5.742188 9.035156 -5.4375 9.296875 -5.15625 C 9.554688 -4.875 9.785156 -4.660156 9.984375 -4.515625 L 5.03125 0.03125 C 4.550781 0.457031 4.3125 0.945312 4.3125 1.5 C 4.332031 2.007812 4.523438 2.46875 4.890625 2.875 C 5.460938 3.488281 6.148438 3.601562 6.953125 3.21875 C 7.253906 3.09375 7.566406 2.878906 7.890625 2.578125 Z M 12.53125 -1.6875 "/></g></g></g><g fill="#000000" fill-opacity="1"><g transform="translate(246.751899, 145.388655)"><g><path d="M 4.75 6.3125 C 4.289062 6.144531 3.832031 5.84375 3.375 5.40625 C 2.925781 4.976562 2.46875 4.382812 2 3.625 C 1.539062 2.875 1.125 2.035156 0.75 1.109375 L 9.484375 -4.234375 C 10.140625 -3.460938 10.660156 -2.757812 11.046875 -2.125 C 11.429688 -1.5 11.6875 -0.941406 11.8125 -0.453125 C 11.9375 0.0234375 11.976562 0.457031 11.9375 0.84375 C 11.851562 1.570312 11.5 2.128906 10.875 2.515625 C 10.25 2.898438 9.585938 2.988281 8.890625 2.78125 C 9.054688 3.425781 8.992188 4.039062 8.703125 4.625 C 8.453125 5.15625 8.070312 5.578125 7.5625 5.890625 C 7.050781 6.203125 6.570312 6.390625 6.125 6.453125 C 5.675781 6.523438 5.21875 6.476562 4.75 6.3125 Z M 7.25 -0.453125 C 7.332031 -0.253906 7.457031 -0.015625 7.625 0.265625 C 7.800781 0.546875 7.976562 0.753906 8.15625 0.890625 C 8.34375 1.023438 8.523438 1.101562 8.703125 1.125 C 8.972656 1.1875 9.269531 1.113281 9.59375 0.90625 C 10.269531 0.5 10.367188 -0.0976562 9.890625 -0.890625 C 9.679688 -1.234375 9.492188 -1.515625 9.328125 -1.734375 Z M 6.4375 1.390625 C 6.207031 1.015625 5.984375 0.703125 5.765625 0.453125 L 3.15625 2.046875 C 3.257812 2.398438 3.414062 2.75 3.625 3.09375 C 3.84375 3.4375 4.066406 3.710938 4.296875 3.921875 C 4.535156 4.128906 4.78125 4.28125 5.03125 4.375 C 5.539062 4.550781 6.023438 4.5 6.484375 4.21875 C 7.296875 3.71875 7.28125 2.773438 6.4375 1.390625 Z M 6.4375 1.390625 "/></g></g></g><g fill="#000000" fill-opacity="1"><g transform="translate(117.353634, 227.380262)"><g><path d="M 9.046875 -0.15625 C 9.410156 0.46875 9.613281 1.0625 9.65625 1.625 L 8.125 2.53125 L 8.109375 2.53125 C 8.296875 2.175781 8.257812 1.671875 8 1.015625 C 7.914062 0.816406 7.796875 0.582031 7.640625 0.3125 C 7.484375 0.0390625 7.273438 -0.191406 7.015625 -0.390625 C 6.753906 -0.585938 6.488281 -0.71875 6.21875 -0.78125 C 5.664062 -0.882812 5.050781 -0.738281 4.375 -0.34375 C 3.582031 0.125 3.117188 0.675781 2.984375 1.3125 C 2.859375 1.832031 2.960938 2.375 3.296875 2.9375 C 3.671875 3.570312 4.109375 4.007812 4.609375 4.25 C 4.785156 4.320312 4.976562 4.367188 5.1875 4.390625 L 5.171875 4.421875 L 3.78125 5.25 C 3.050781 4.988281 2.4375 4.425781 1.9375 3.5625 C 1.332031 2.539062 1.179688 1.550781 1.484375 0.59375 C 1.785156 -0.332031 2.441406 -1.097656 3.453125 -1.703125 C 4.523438 -2.335938 5.554688 -2.53125 6.546875 -2.28125 C 7.523438 -2.03125 8.359375 -1.320312 9.046875 -0.15625 Z M 9.046875 -0.15625 "/></g></g></g><g fill="#000000" fill-opacity="1"><g transform="translate(122.670545, 236.074705)"><g><path d="M 1.71875 0.703125 C 1.769531 0.210938 1.914062 -0.253906 2.15625 -0.703125 C 2.40625 -1.160156 2.75 -1.5625 3.1875 -1.90625 C 3.625 -2.257812 4.097656 -2.519531 4.609375 -2.6875 C 5.117188 -2.863281 5.632812 -2.929688 6.15625 -2.890625 C 6.6875 -2.859375 7.195312 -2.71875 7.6875 -2.46875 C 8.175781 -2.21875 8.613281 -1.851562 9 -1.375 C 9.664062 -0.53125 9.960938 0.382812 9.890625 1.375 C 9.816406 2.445312 9.304688 3.363281 8.359375 4.125 C 7.429688 4.863281 6.40625 5.164062 5.28125 5.03125 C 4.59375 4.925781 3.960938 4.675781 3.390625 4.28125 C 3.109375 4.0625 2.828125 3.773438 2.546875 3.421875 C 2.273438 3.078125 2.054688 2.660156 1.890625 2.171875 C 1.734375 1.679688 1.675781 1.191406 1.71875 0.703125 Z M 4.25 -0.71875 C 3.96875 -0.488281 3.75 -0.234375 3.59375 0.046875 C 3.4375 0.335938 3.34375 0.632812 3.3125 0.9375 C 3.238281 1.570312 3.425781 2.171875 3.875 2.734375 C 4.289062 3.265625 4.796875 3.546875 5.390625 3.578125 C 6.003906 3.628906 6.617188 3.414062 7.234375 2.9375 C 7.804688 2.46875 8.160156 1.925781 8.296875 1.3125 C 8.441406 0.644531 8.28125 0.0195312 7.8125 -0.5625 C 7.363281 -1.132812 6.796875 -1.421875 6.109375 -1.421875 C 5.460938 -1.421875 4.84375 -1.1875 4.25 -0.71875 Z M 4.25 -0.71875 "/></g></g></g><g fill="#000000" fill-opacity="1"><g transform="translate(130.515769, 245.472116)"><g><path d="M 1.875 1.75 C 1.75 1.613281 1.492188 1.367188 1.109375 1.015625 L 0.765625 0.703125 L 6 -5.015625 C 6.164062 -4.835938 6.359375 -4.648438 6.578125 -4.453125 C 6.796875 -4.253906 6.960938 -4.125 7.078125 -4.0625 L 6.265625 -0.28125 L 9.90625 -1.46875 C 9.976562 -1.363281 10.140625 -1.191406 10.390625 -0.953125 C 10.648438 -0.722656 10.878906 -0.53125 11.078125 -0.375 L 5.84375 5.34375 L 5.5 5.03125 C 5.101562 4.675781 4.832031 4.4375 4.6875 4.3125 L 8.1875 0.484375 L 4.484375 1.71875 L 5.203125 -1.890625 Z M 1.875 1.75 "/></g></g></g><g fill="#000000" fill-opacity="1"><g transform="translate(139.735177, 253.561671)"><g><path d="M 2.125 1.453125 C 1.976562 1.328125 1.6875 1.117188 1.25 0.828125 L 0.859375 0.578125 L 5.140625 -5.875 C 5.347656 -5.726562 5.570312 -5.570312 5.8125 -5.40625 C 6.0625 -5.25 6.242188 -5.148438 6.359375 -5.109375 L 6.171875 -1.25 L 9.5625 -3 C 9.65625 -2.894531 9.84375 -2.742188 10.125 -2.546875 C 10.414062 -2.359375 10.664062 -2.203125 10.875 -2.078125 L 6.59375 4.375 L 6.203125 4.125 C 5.765625 3.832031 5.460938 3.644531 5.296875 3.5625 L 8.171875 -0.78125 L 4.703125 1 L 4.859375 -2.671875 Z M 2.125 1.453125 "/></g></g></g><g fill="#000000" fill-opacity="1"><g transform="translate(150.089465, 260.098666)"><g><path d="M 8.1875 -4.734375 C 8.394531 -4.617188 8.570312 -4.523438 8.71875 -4.453125 L 9.15625 -4.25 C 9.300781 -4.175781 9.460938 -4.117188 9.640625 -4.078125 L 7.609375 0.28125 C 7.203125 1.132812 6.613281 1.707031 5.84375 2 C 5.113281 2.25 4.375 2.203125 3.625 1.859375 C 2.8125 1.472656 2.253906 0.945312 1.953125 0.28125 C 1.597656 -0.445312 1.632812 -1.265625 2.0625 -2.171875 L 4.15625 -6.625 C 4.4375 -6.46875 4.703125 -6.328125 4.953125 -6.203125 C 5.210938 -6.085938 5.4375 -6.007812 5.625 -5.96875 L 3.5 -1.421875 C 3.289062 -0.984375 3.265625 -0.570312 3.421875 -0.1875 C 3.566406 0.15625 3.832031 0.414062 4.21875 0.59375 C 4.769531 0.851562 5.273438 0.738281 5.734375 0.25 C 5.890625 0.0703125 6.039062 -0.164062 6.1875 -0.46875 Z M 8.1875 -4.734375 "/></g></g></g><g fill="#000000" fill-opacity="1"><g transform="translate(160.362064, 264.644705)"><g><path d="M 1 0.3125 C 1.070312 0.1875 1.128906 0.046875 1.171875 -0.109375 L 3.296875 -7.078125 L 4.40625 -6.734375 L 5.9375 -1.21875 L 7.234375 -5.484375 C 7.296875 -5.679688 7.3125 -5.804688 7.28125 -5.859375 L 8.796875 -5.390625 C 8.734375 -5.253906 8.675781 -5.097656 8.625 -4.921875 L 6.515625 1.984375 L 5.359375 1.640625 L 3.8125 -3.703125 L 2.453125 0.75 Z M 1 0.3125 "/></g></g></g><g fill="#000000" fill-opacity="1"><g transform="translate(171.068886, 267.596015)"><g><path d="M 2.5625 -7.40625 C 2.9375 -7.332031 3.164062 -7.285156 3.25 -7.265625 L 3.65625 -7.203125 C 3.851562 -7.160156 4.015625 -7.144531 4.140625 -7.15625 L 2.75 0.5 L 1.171875 0.21875 Z M 2.5625 -7.40625 "/></g></g></g><g fill="#000000" fill-opacity="1"><g transform="translate(178.126717, 268.767546)"><g><path d="M 3.78125 0.328125 C 3.59375 0.285156 3.117188 0.238281 2.359375 0.1875 L 2.171875 0.171875 L 2.671875 -6.25 L 1.515625 -6.34375 C 1.171875 -6.375 0.960938 -6.367188 0.890625 -6.328125 C 0.828125 -6.296875 0.78125 -6.269531 0.75 -6.25 L 0.734375 -6.265625 L 0.84375 -7.75 L 0.859375 -7.765625 C 0.984375 -7.710938 1.328125 -7.664062 1.890625 -7.625 L 5.53125 -7.34375 C 5.863281 -7.3125 6.0625 -7.3125 6.125 -7.34375 C 6.195312 -7.375 6.253906 -7.398438 6.296875 -7.421875 L 6.3125 -7.421875 L 6.1875 -5.9375 L 6.171875 -5.90625 C 6.046875 -5.96875 5.703125 -6.019531 5.140625 -6.0625 L 4.28125 -6.125 Z M 3.78125 0.328125 "/></g></g></g><g fill="#000000" fill-opacity="1"><g transform="translate(187.304819, 269.30791)"><g><path d="M 2.625 -0.125 C 2.664062 -0.28125 2.675781 -0.632812 2.65625 -1.1875 L 2.578125 -2.796875 C 1.835938 -4.242188 1.367188 -5.144531 1.171875 -5.5 C 0.972656 -5.851562 0.800781 -6.140625 0.65625 -6.359375 C 0.226562 -7.015625 -0.0234375 -7.390625 -0.109375 -7.484375 C -0.203125 -7.578125 -0.296875 -7.65625 -0.390625 -7.71875 L 1.625 -7.8125 C 1.664062 -7.726562 1.726562 -7.617188 1.8125 -7.484375 L 3.34375 -4.578125 C 3.394531 -4.742188 3.46875 -4.929688 3.5625 -5.140625 C 4.320312 -6.984375 4.707031 -7.921875 4.71875 -7.953125 L 6.640625 -8.03125 C 6.441406 -7.875 6.207031 -7.535156 5.9375 -7.015625 C 5.863281 -6.859375 5.785156 -6.679688 5.703125 -6.484375 L 4.515625 -3.6875 C 4.378906 -3.351562 4.265625 -3.050781 4.171875 -2.78125 L 4.25 -1.109375 C 4.269531 -0.722656 4.304688 -0.421875 4.359375 -0.203125 Z M 2.625 -0.125 "/></g></g></g><g fill="#000000" fill-opacity="1"><g transform="translate(197.404659, 268.593858)"><g/></g></g><g fill="#000000" fill-opacity="1"><g transform="translate(204.447786, 267.402741)"><g><path d="M 3.5625 -8.53125 L 3.921875 -6.859375 L 3.875 -6.828125 C 3.488281 -7.160156 2.941406 -7.304688 2.234375 -7.265625 C 2.015625 -7.242188 1.804688 -7.207031 1.609375 -7.15625 C 1.421875 -7.101562 1.265625 -7.039062 1.140625 -6.96875 C 1.015625 -6.894531 0.90625 -6.8125 0.8125 -6.71875 C 0.65625 -6.53125 0.601562 -6.328125 0.65625 -6.109375 C 0.738281 -5.828125 0.890625 -5.640625 1.109375 -5.546875 C 1.378906 -5.429688 1.78125 -5.410156 2.3125 -5.484375 C 2.84375 -5.566406 3.285156 -5.585938 3.640625 -5.546875 C 3.992188 -5.515625 4.289062 -5.429688 4.53125 -5.296875 C 5.007812 -5.046875 5.335938 -4.613281 5.515625 -4 C 5.734375 -3.164062 5.585938 -2.445312 5.078125 -1.84375 C 4.648438 -1.3125 4.035156 -0.9375 3.234375 -0.71875 C 2.578125 -0.539062 1.898438 -0.488281 1.203125 -0.5625 C 0.972656 -0.582031 0.765625 -0.632812 0.578125 -0.71875 L 0.140625 -2.609375 L 0.140625 -2.625 C 0.828125 -1.945312 1.703125 -1.75 2.765625 -2.03125 C 3.503906 -2.238281 3.953125 -2.554688 4.109375 -2.984375 C 4.160156 -3.128906 4.164062 -3.273438 4.125 -3.421875 C 4.082031 -3.578125 4.023438 -3.695312 3.953125 -3.78125 C 3.878906 -3.875 3.773438 -3.941406 3.640625 -3.984375 C 3.378906 -4.054688 2.984375 -4.050781 2.453125 -3.96875 C 1.929688 -3.882812 1.488281 -3.863281 1.125 -3.90625 C 0.757812 -3.957031 0.453125 -4.054688 0.203125 -4.203125 C -0.242188 -4.460938 -0.554688 -4.914062 -0.734375 -5.5625 C -0.910156 -6.226562 -0.8125 -6.828125 -0.4375 -7.359375 C -0.0820312 -7.910156 0.492188 -8.296875 1.296875 -8.515625 C 2.109375 -8.734375 2.863281 -8.738281 3.5625 -8.53125 Z M 3.5625 -8.53125 "/></g></g></g><g fill="#000000" fill-opacity="1"><g transform="translate(214.245607, 264.56415)"><g><path d="M 1.96875 -9.25 C 2.195312 -9.320312 2.382812 -9.390625 2.53125 -9.453125 L 2.96875 -9.640625 C 3.125 -9.703125 3.273438 -9.785156 3.421875 -9.890625 L 5.296875 -5.453125 C 5.671875 -4.578125 5.703125 -3.765625 5.390625 -3.015625 C 5.085938 -2.296875 4.554688 -1.773438 3.796875 -1.453125 C 2.960938 -1.109375 2.203125 -1.039062 1.515625 -1.25 C 0.742188 -1.488281 0.160156 -2.070312 -0.234375 -3 L -2.140625 -7.53125 C -1.828125 -7.632812 -1.539062 -7.738281 -1.28125 -7.84375 C -1.019531 -7.957031 -0.816406 -8.066406 -0.671875 -8.171875 L 1.28125 -3.546875 C 1.46875 -3.097656 1.757812 -2.804688 2.15625 -2.671875 C 2.507812 -2.546875 2.878906 -2.566406 3.265625 -2.734375 C 3.828125 -2.972656 4.078125 -3.425781 4.015625 -4.09375 C 4.003906 -4.320312 3.929688 -4.59375 3.796875 -4.90625 Z M 1.96875 -9.25 "/></g></g></g><g fill="#000000" fill-opacity="1"><g transform="translate(224.452045, 259.961484)"><g><path d="M -3.140625 -7.15625 C -2.710938 -7.488281 -2.253906 -7.796875 -1.765625 -8.078125 C -0.859375 -8.609375 -0.046875 -8.796875 0.671875 -8.640625 C 1.398438 -8.492188 2.007812 -8 2.5 -7.15625 C 2.945312 -6.394531 3.039062 -5.640625 2.78125 -4.890625 C 2.539062 -4.203125 2.035156 -3.632812 1.265625 -3.1875 C 1.179688 -3.132812 1.082031 -3.082031 0.96875 -3.03125 L 2.046875 -1.203125 L 0.765625 -0.453125 Z M -0.921875 -6.96875 C -1.015625 -6.90625 -1.113281 -6.847656 -1.21875 -6.796875 L 0.328125 -4.140625 C 0.453125 -4.191406 0.585938 -4.257812 0.734375 -4.34375 C 0.890625 -4.4375 1.03125 -4.5625 1.15625 -4.71875 C 1.289062 -4.882812 1.378906 -5.0625 1.421875 -5.25 C 1.515625 -5.625 1.445312 -6.015625 1.21875 -6.421875 C 0.695312 -7.304688 -0.015625 -7.488281 -0.921875 -6.96875 Z M -0.921875 -6.96875 "/></g></g></g><g fill="#000000" fill-opacity="1"><g transform="translate(232.281504, 255.17717)"><g><path d="M -3.9375 -6.734375 C -3.5625 -7.117188 -3.148438 -7.484375 -2.703125 -7.828125 C -1.859375 -8.460938 -1.066406 -8.742188 -0.328125 -8.671875 C 0.398438 -8.609375 1.0625 -8.1875 1.65625 -7.40625 C 2.1875 -6.695312 2.363281 -5.957031 2.1875 -5.1875 C 2.03125 -4.46875 1.597656 -3.84375 0.890625 -3.3125 C 0.804688 -3.25 0.71875 -3.1875 0.625 -3.125 L 1.90625 -1.421875 L 0.71875 -0.53125 Z M -1.71875 -6.8125 C -1.8125 -6.738281 -1.898438 -6.664062 -1.984375 -6.59375 L -0.140625 -4.140625 C -0.0351562 -4.210938 0.0820312 -4.300781 0.21875 -4.40625 C 0.363281 -4.519531 0.488281 -4.660156 0.59375 -4.828125 C 0.707031 -5.003906 0.773438 -5.1875 0.796875 -5.375 C 0.847656 -5.769531 0.734375 -6.15625 0.453125 -6.53125 C -0.160156 -7.34375 -0.882812 -7.4375 -1.71875 -6.8125 Z M -1.71875 -6.8125 "/></g></g></g><g fill="#000000" fill-opacity="1"><g transform="translate(239.591482, 249.537105)"><g><path d="M 0.515625 -1.796875 C 0.0234375 -1.796875 -0.453125 -1.890625 -0.921875 -2.078125 C -1.398438 -2.265625 -1.835938 -2.554688 -2.234375 -2.953125 C -2.628906 -3.359375 -2.9375 -3.804688 -3.15625 -4.296875 C -3.382812 -4.796875 -3.503906 -5.304688 -3.515625 -5.828125 C -3.535156 -6.359375 -3.445312 -6.875 -3.25 -7.375 C -3.050781 -7.882812 -2.734375 -8.359375 -2.296875 -8.796875 C -1.535156 -9.546875 -0.660156 -9.9375 0.328125 -9.96875 C 1.398438 -10.019531 2.363281 -9.613281 3.21875 -8.75 C 4.050781 -7.90625 4.460938 -6.914062 4.453125 -5.78125 C 4.421875 -5.082031 4.234375 -4.425781 3.890625 -3.8125 C 3.703125 -3.519531 3.445312 -3.21875 3.125 -2.90625 C 2.8125 -2.59375 2.421875 -2.328125 1.953125 -2.109375 C 1.484375 -1.898438 1.003906 -1.796875 0.515625 -1.796875 Z M -1.140625 -4.15625 C -0.890625 -3.894531 -0.613281 -3.695312 -0.3125 -3.5625 C -0.0195312 -3.4375 0.273438 -3.378906 0.578125 -3.390625 C 1.222656 -3.378906 1.800781 -3.628906 2.3125 -4.140625 C 2.789062 -4.609375 3.019531 -5.144531 3 -5.75 C 2.976562 -6.351562 2.691406 -6.9375 2.140625 -7.5 C 1.628906 -8.019531 1.0625 -8.3125 0.4375 -8.375 C -0.238281 -8.457031 -0.84375 -8.238281 -1.375 -7.71875 C -1.894531 -7.195312 -2.117188 -6.597656 -2.046875 -5.921875 C -1.984375 -5.285156 -1.679688 -4.695312 -1.140625 -4.15625 Z M -1.140625 -4.15625 "/></g></g></g><g fill="#000000" fill-opacity="1"><g transform="translate(248.052255, 240.7451)"><g><path d="M -0.28125 -4.59375 C -0.34375 -4.507812 -0.410156 -4.414062 -0.484375 -4.3125 C -0.566406 -4.207031 -0.691406 -4.054688 -0.859375 -3.859375 L 1.546875 -2.03125 L 0.609375 -0.796875 L -5.578125 -5.5 C -5.304688 -5.96875 -4.929688 -6.519531 -4.453125 -7.15625 C -3.804688 -8.007812 -3.164062 -8.523438 -2.53125 -8.703125 C -1.894531 -8.890625 -1.242188 -8.726562 -0.578125 -8.21875 C -0.0664062 -7.832031 0.21875 -7.3125 0.28125 -6.65625 C 0.3125 -6.4375 0.304688 -6.21875 0.265625 -6 L 2.96875 -5.40625 C 3.519531 -5.289062 3.878906 -5.25 4.046875 -5.28125 L 4.03125 -5.25 C 3.769531 -4.988281 3.410156 -4.515625 2.953125 -3.828125 Z M -3.296875 -6.40625 C -3.410156 -6.25 -3.515625 -6.09375 -3.609375 -5.9375 L -1.84375 -4.59375 C -1.71875 -4.726562 -1.578125 -4.894531 -1.421875 -5.09375 C -1.265625 -5.300781 -1.148438 -5.484375 -1.078125 -5.640625 C -1.003906 -5.804688 -0.96875 -5.976562 -0.96875 -6.15625 C -0.96875 -6.5 -1.128906 -6.789062 -1.453125 -7.03125 C -1.773438 -7.28125 -2.09375 -7.34375 -2.40625 -7.21875 C -2.675781 -7.09375 -2.972656 -6.820312 -3.296875 -6.40625 Z M -3.296875 -6.40625 "/></g></g></g><g fill="#000000" fill-opacity="1"><g transform="translate(254.014386, 232.515209)"><g><path d="M 1.9375 -3.265625 C 1.820312 -3.109375 1.570312 -2.703125 1.1875 -2.046875 L 1.09375 -1.875 L -4.46875 -5.109375 L -5.046875 -4.109375 C -5.222656 -3.816406 -5.3125 -3.632812 -5.3125 -3.5625 C -5.3125 -3.488281 -5.300781 -3.429688 -5.28125 -3.390625 L -5.3125 -3.390625 L -6.59375 -4.125 L -6.59375 -4.15625 C -6.5 -4.238281 -6.3125 -4.523438 -6.03125 -5.015625 L -4.203125 -8.171875 C -4.023438 -8.460938 -3.9375 -8.640625 -3.9375 -8.703125 C -3.9375 -8.773438 -3.9375 -8.832031 -3.9375 -8.875 L -3.9375 -8.890625 L -2.65625 -8.15625 L -2.625 -8.125 C -2.738281 -8.03125 -2.9375 -7.742188 -3.21875 -7.265625 L -3.65625 -6.515625 Z M 1.9375 -3.265625 "/></g></g></g></svg>