<svg xmlns="http://www.w3.org/2000/svg" xmlns:xlink="http://www.w3.org/1999/xlink" width="500" zoomAndPan="magnify" viewBox="0 0 375 374.999991" height="500" preserveAspectRatio="xMidYMid meet" version="1.0"><defs><g/><clipPath id="fd965d0524"><path d="M 106 214 L 253.402344 214 L 253.402344 266 L 106 266 Z M 106 214 " clip-rule="nonzero"/></clipPath></defs><path fill="#3f5965" d="M 184.347656 278.796875 C 186.96875 278.015625 189.523438 277.121094 192.007812 276.121094 C 149.015625 284.628906 105.828125 259.152344 93.101562 216.300781 C 80.375 173.449219 102.660156 128.527344 143.328125 112.191406 C 140.699219 112.710938 138.070312 113.351562 135.449219 114.128906 C 89.980469 127.632812 64.066406 175.441406 77.566406 220.914062 C 91.070312 266.382812 138.878906 292.296875 184.347656 278.796875 " fill-opacity="1" fill-rule="nonzero"/><path fill="#289db9" d="M 77.933594 256.996094 C 80.214844 258.785156 82.554688 260.441406 84.941406 261.976562 C 51.222656 230.035156 46.753906 177.078125 75.984375 139.796875 C 105.21875 102.515625 157.710938 94.222656 196.773438 119.351562 C 194.710938 117.398438 192.550781 115.519531 190.269531 113.734375 C 150.707031 82.714844 93.492188 89.636719 62.46875 129.199219 C 31.449219 168.757812 38.375 225.976562 77.933594 256.996094 " fill-opacity="1" fill-rule="nonzero"/><g clip-path="url(#fd965d0524)"><path fill="#289db9" d="M 162.582031 252.839844 C 139.121094 246.53125 119.824219 232.464844 106.703125 214.148438 C 117.046875 236.992188 137.15625 255.195312 163.265625 262.210938 C 197.367188 271.378906 232.183594 258.902344 253.136719 233.191406 C 228.773438 253.265625 195.390625 261.65625 162.582031 252.839844 " fill-opacity="1" fill-rule="nonzero"/></g><g fill="#3f5965" fill-opacity="1"><g transform="translate(88.970284, 205.902796)"><g><path d="M 15.546875 -9.34375 L 28.125 -37.359375 L 36.734375 -37.359375 L 18.296875 0 L 10.4375 0 L 3.71875 -37.359375 L 11.796875 -37.359375 Z M 15.546875 -9.34375 "/></g></g></g><g fill="#3f5965" fill-opacity="1"><g transform="translate(120.078431, 205.902796)"><g><path d="M 15.953125 -28.28125 C 18.398438 -28.238281 20.507812 -27.601562 22.28125 -26.375 C 24.050781 -25.15625 25.347656 -23.472656 26.171875 -21.328125 C 27.003906 -19.179688 27.300781 -16.800781 27.0625 -14.1875 C 26.675781 -9.769531 25.144531 -6.195312 22.46875 -3.46875 C 19.789062 -0.75 16.484375 0.578125 12.546875 0.515625 C 10.128906 0.484375 8.039062 -0.132812 6.28125 -1.34375 C 4.519531 -2.550781 3.21875 -4.222656 2.375 -6.359375 C 1.539062 -8.492188 1.242188 -10.851562 1.484375 -13.4375 C 1.929688 -18.03125 3.488281 -21.675781 6.15625 -24.375 C 8.820312 -27.070312 12.085938 -28.375 15.953125 -28.28125 Z M 8.640625 -10.796875 C 8.679688 -9.160156 9.066406 -7.863281 9.796875 -6.90625 C 10.535156 -5.957031 11.570312 -5.46875 12.90625 -5.4375 C 15.125 -5.375 16.863281 -6.394531 18.125 -8.5 C 19.394531 -10.613281 19.988281 -13.390625 19.90625 -16.828125 C 19.84375 -18.472656 19.445312 -19.785156 18.71875 -20.765625 C 17.988281 -21.753906 16.945312 -22.265625 15.59375 -22.296875 C 13.4375 -22.367188 11.710938 -21.351562 10.421875 -19.25 C 9.140625 -17.15625 8.546875 -14.335938 8.640625 -10.796875 Z M 8.640625 -10.796875 "/></g></g></g><g fill="#3f5965" fill-opacity="1"><g transform="translate(146.671902, 205.902796)"><g><path d="M 7.71875 0 L 0.4375 0 L 7.28125 -39.40625 L 14.546875 -39.40625 Z M 7.71875 0 "/></g></g></g><g fill="#3f5965" fill-opacity="1"><g transform="translate(157.977038, 205.902796)"><g><path d="M 17.265625 -2.875 C 15.210938 -0.5625 12.664062 0.566406 9.625 0.515625 C 6.957031 0.484375 4.9375 -0.472656 3.5625 -2.359375 C 2.195312 -4.242188 1.664062 -6.722656 1.96875 -9.796875 L 4.984375 -27.765625 L 12.21875 -27.765625 L 9.15625 -9.71875 C 9.09375 -9.15625 9.085938 -8.628906 9.140625 -8.140625 C 9.304688 -6.421875 10.253906 -5.535156 11.984375 -5.484375 C 14.222656 -5.421875 16.078125 -6.285156 17.546875 -8.078125 L 21.015625 -27.765625 L 28.296875 -27.765625 L 23.484375 0 L 16.734375 0 Z M 17.265625 -2.875 "/></g></g></g><g fill="#3f5965" fill-opacity="1"><g transform="translate(184.288344, 205.902796)"><g><path d="M 11.515625 -27.78125 L 10.90625 -24.5 C 13.125 -27.082031 15.816406 -28.34375 18.984375 -28.28125 C 21.597656 -28.226562 23.53125 -27.269531 24.78125 -25.40625 C 26.03125 -23.539062 26.484375 -20.957031 26.140625 -17.65625 L 23.21875 0 L 15.984375 0 L 18.96875 -17.734375 C 19.050781 -18.398438 19.066406 -19.003906 19.015625 -19.546875 C 18.785156 -21.296875 17.691406 -22.195312 15.734375 -22.25 C 13.828125 -22.3125 12.125 -21.429688 10.625 -19.609375 L 7.15625 0 L -0.078125 0 L 4.75 -27.765625 Z M 11.515625 -27.78125 "/></g></g></g><g fill="#289db9" fill-opacity="1"><g transform="translate(202.998697, 204.749987)"><g><path d="M 33.25 -31.125 L 22.171875 -31.125 L 16.78125 0 L 9.265625 0 L 14.65625 -31.125 L 3.6875 -31.125 L 4.796875 -37.359375 L 34.359375 -37.359375 Z M 33.25 -31.125 "/></g></g></g><g fill="#289db9" fill-opacity="1"><g transform="translate(232.311692, 204.749987)"><g><path d="M 13.265625 0.515625 C 10.835938 0.492188 8.6875 -0.0976562 6.8125 -1.265625 C 4.9375 -2.441406 3.535156 -4.050781 2.609375 -6.09375 C 1.691406 -8.132812 1.335938 -10.390625 1.546875 -12.859375 L 1.609375 -13.875 C 1.867188 -16.582031 2.65625 -19.0625 3.96875 -21.3125 C 5.289062 -23.570312 6.984375 -25.3125 9.046875 -26.53125 C 11.117188 -27.757812 13.414062 -28.34375 15.9375 -28.28125 C 19.507812 -28.207031 22.210938 -26.890625 24.046875 -24.328125 C 25.890625 -21.773438 26.585938 -18.539062 26.140625 -14.625 L 25.734375 -11.46875 L 8.71875 -11.46875 C 8.65625 -9.675781 9.09375 -8.238281 10.03125 -7.15625 C 10.96875 -6.082031 12.25 -5.523438 13.875 -5.484375 C 16.507812 -5.421875 18.820312 -6.441406 20.8125 -8.546875 L 24.125 -4.4375 C 23.070312 -2.863281 21.5625 -1.632812 19.59375 -0.75 C 17.632812 0.125 15.523438 0.546875 13.265625 0.515625 Z M 15.578125 -22.296875 C 14.242188 -22.328125 13.054688 -21.90625 12.015625 -21.03125 C 10.984375 -20.164062 10.054688 -18.65625 9.234375 -16.5 L 19.1875 -16.5 L 19.34375 -17.171875 C 19.445312 -17.847656 19.457031 -18.492188 19.375 -19.109375 C 19.195312 -20.109375 18.773438 -20.882812 18.109375 -21.4375 C 17.441406 -21.988281 16.597656 -22.273438 15.578125 -22.296875 Z M 15.578125 -22.296875 "/></g></g></g><g fill="#289db9" fill-opacity="1"><g transform="translate(257.648632, 204.749987)"><g><path d="M 16.140625 0 C 15.921875 -0.695312 15.828125 -1.535156 15.859375 -2.515625 C 13.765625 -0.429688 11.40625 0.578125 8.78125 0.515625 C 6.34375 0.484375 4.320312 -0.304688 2.71875 -1.859375 C 1.125 -3.410156 0.378906 -5.320312 0.484375 -7.59375 C 0.609375 -10.625 1.878906 -12.945312 4.296875 -14.5625 C 6.710938 -16.175781 9.957031 -16.984375 14.03125 -16.984375 L 17.421875 -16.9375 L 17.78125 -18.609375 C 17.882812 -19.171875 17.910156 -19.707031 17.859375 -20.21875 C 17.773438 -21.019531 17.472656 -21.644531 16.953125 -22.09375 C 16.429688 -22.550781 15.738281 -22.789062 14.875 -22.8125 C 13.75 -22.84375 12.789062 -22.5625 12 -21.96875 C 11.21875 -21.382812 10.71875 -20.535156 10.5 -19.421875 L 3.234375 -19.390625 C 3.347656 -22.046875 4.5625 -24.195312 6.875 -25.84375 C 9.195312 -27.5 12.0625 -28.3125 15.46875 -28.28125 C 18.613281 -28.207031 21.078125 -27.269531 22.859375 -25.46875 C 24.640625 -23.664062 25.382812 -21.34375 25.09375 -18.5 L 22.96875 -5.203125 L 22.828125 -3.5625 C 22.796875 -2.351562 22.941406 -1.328125 23.265625 -0.484375 L 23.25 0 Z M 10.578125 -5.109375 C 12.660156 -5.035156 14.476562 -5.941406 16.03125 -7.828125 L 16.9375 -12.625 L 14.421875 -12.65625 C 11.753906 -12.582031 9.828125 -11.769531 8.640625 -10.21875 C 8.210938 -9.644531 7.945312 -8.953125 7.84375 -8.140625 C 7.707031 -7.210938 7.898438 -6.476562 8.421875 -5.9375 C 8.953125 -5.394531 9.671875 -5.117188 10.578125 -5.109375 Z M 10.578125 -5.109375 "/></g></g></g><g fill="#289db9" fill-opacity="1"><g transform="translate(282.754708, 204.749987)"><g><path d="M 11.625 -27.78125 L 11.03125 -24.625 C 13.269531 -27.125 15.984375 -28.34375 19.171875 -28.28125 C 20.878906 -28.238281 22.296875 -27.84375 23.421875 -27.09375 C 24.554688 -26.34375 25.316406 -25.328125 25.703125 -24.046875 C 28.148438 -26.929688 31.023438 -28.34375 34.328125 -28.28125 C 36.878906 -28.226562 38.800781 -27.351562 40.09375 -25.65625 C 41.382812 -23.96875 41.925781 -21.519531 41.71875 -18.3125 L 41.671875 -17.671875 L 38.71875 0 L 31.453125 0 L 34.40625 -17.734375 C 34.476562 -18.359375 34.503906 -18.945312 34.484375 -19.5 C 34.359375 -21.289062 33.332031 -22.210938 31.40625 -22.265625 C 29.414062 -22.265625 27.710938 -21.207031 26.296875 -19.09375 L 26.21875 -18.5 L 22.984375 0 L 15.75 0 L 18.703125 -17.671875 C 18.773438 -18.304688 18.800781 -18.898438 18.78125 -19.453125 C 18.664062 -21.265625 17.648438 -22.195312 15.734375 -22.25 C 13.898438 -22.300781 12.25 -21.4375 10.78125 -19.65625 L 7.3125 0 L 0.078125 0 L 4.875 -27.765625 Z M 11.625 -27.78125 "/></g></g></g><g fill="#289db9" fill-opacity="1"><g transform="translate(135.103707, 224.443989)"><g><path d="M 0.25 0 L 2.828125 -12.125 L 4.578125 -12.125 L 3.484375 -6.96875 L 9.828125 -6.96875 L 10.921875 -12.125 L 12.65625 -12.125 L 10.09375 0 L 8.34375 0 L 9.5 -5.515625 L 3.171875 -5.515625 L 2 0 Z M 0.25 0 "/></g></g></g><g fill="#289db9" fill-opacity="1"><g transform="translate(147.693328, 224.443989)"><g><path d="M 3.140625 0.203125 C 2.253906 0.203125 1.628906 -0.0351562 1.265625 -0.515625 C 0.898438 -1.003906 0.71875 -1.609375 0.71875 -2.328125 C 0.71875 -2.753906 0.773438 -3.207031 0.890625 -3.6875 L 2.015625 -9 L 3.578125 -9 L 2.453125 -3.71875 C 2.398438 -3.5 2.359375 -3.28125 2.328125 -3.0625 C 2.296875 -2.851562 2.28125 -2.660156 2.28125 -2.484375 C 2.28125 -2.085938 2.378906 -1.757812 2.578125 -1.5 C 2.785156 -1.25 3.15625 -1.125 3.6875 -1.125 C 4.394531 -1.125 5.019531 -1.367188 5.5625 -1.859375 C 6.113281 -2.347656 6.507812 -3.15625 6.75 -4.28125 L 7.765625 -9 L 9.3125 -9 L 7.40625 0 L 6.21875 0 L 6.109375 -1.265625 C 5.722656 -0.765625 5.300781 -0.394531 4.84375 -0.15625 C 4.394531 0.0820312 3.828125 0.203125 3.140625 0.203125 Z M 3.140625 0.203125 "/></g></g></g><g fill="#289db9" fill-opacity="1"><g transform="translate(157.489287, 224.443989)"><g><path d="M 0.140625 0 L 2.046875 -9 L 3.203125 -9 L 3.3125 -7.75 C 3.664062 -8.164062 4.0625 -8.5 4.5 -8.75 C 4.945312 -9.007812 5.507812 -9.140625 6.1875 -9.140625 C 6.894531 -9.140625 7.429688 -9 7.796875 -8.71875 C 8.171875 -8.4375 8.441406 -8.046875 8.609375 -7.546875 C 9.054688 -8.140625 9.539062 -8.550781 10.0625 -8.78125 C 10.59375 -9.019531 11.175781 -9.140625 11.8125 -9.140625 C 11.96875 -9.140625 12.179688 -9.117188 12.453125 -9.078125 C 12.722656 -9.046875 13 -8.957031 13.28125 -8.8125 C 13.570312 -8.664062 13.8125 -8.429688 14 -8.109375 C 14.195312 -7.785156 14.296875 -7.332031 14.296875 -6.75 C 14.296875 -6.382812 14.238281 -5.945312 14.125 -5.4375 L 12.984375 0 L 11.421875 0 L 12.53125 -5.25 C 12.644531 -5.738281 12.703125 -6.160156 12.703125 -6.515625 C 12.703125 -6.929688 12.597656 -7.25 12.390625 -7.46875 C 12.191406 -7.695312 11.84375 -7.8125 11.34375 -7.8125 C 10.570312 -7.8125 9.9375 -7.554688 9.4375 -7.046875 C 8.9375 -6.535156 8.582031 -5.816406 8.375 -4.890625 L 7.34375 0 L 5.78125 0 L 6.890625 -5.25 C 7.003906 -5.71875 7.0625 -6.125 7.0625 -6.46875 C 7.0625 -6.914062 6.953125 -7.25 6.734375 -7.46875 C 6.523438 -7.695312 6.171875 -7.8125 5.671875 -7.8125 C 5.015625 -7.8125 4.414062 -7.578125 3.875 -7.109375 C 3.332031 -6.640625 2.953125 -5.898438 2.734375 -4.890625 L 1.703125 0 Z M 0.140625 0 "/></g></g></g><g fill="#289db9" fill-opacity="1"><g transform="translate(172.836294, 224.443989)"><g><path d="M 2.796875 0.21875 C 2.015625 0.21875 1.367188 0.0078125 0.859375 -0.40625 C 0.347656 -0.832031 0.09375 -1.40625 0.09375 -2.125 C 0.09375 -2.726562 0.25 -3.226562 0.5625 -3.625 C 0.882812 -4.03125 1.300781 -4.351562 1.8125 -4.59375 C 2.332031 -4.832031 2.890625 -5.015625 3.484375 -5.140625 C 4.085938 -5.265625 4.671875 -5.359375 5.234375 -5.421875 C 5.804688 -5.484375 6.300781 -5.539062 6.71875 -5.59375 C 6.75 -5.757812 6.773438 -5.914062 6.796875 -6.0625 C 6.828125 -6.207031 6.84375 -6.34375 6.84375 -6.46875 C 6.84375 -7.425781 6.285156 -7.90625 5.171875 -7.90625 C 4.609375 -7.90625 4.132812 -7.78125 3.75 -7.53125 C 3.363281 -7.289062 3.066406 -6.953125 2.859375 -6.515625 L 1.5 -6.9375 C 1.820312 -7.613281 2.285156 -8.148438 2.890625 -8.546875 C 3.492188 -8.941406 4.226562 -9.140625 5.09375 -9.140625 C 6.144531 -9.140625 6.953125 -8.925781 7.515625 -8.5 C 8.085938 -8.082031 8.375 -7.429688 8.375 -6.546875 C 8.375 -6.335938 8.359375 -6.128906 8.328125 -5.921875 C 8.304688 -5.722656 8.253906 -5.4375 8.171875 -5.0625 C 8.085938 -4.6875 7.96875 -4.132812 7.8125 -3.40625 C 7.65625 -2.65625 7.550781 -2.003906 7.5 -1.453125 C 7.445312 -0.910156 7.414062 -0.425781 7.40625 0 L 5.96875 0 L 5.890625 -1.140625 C 5.492188 -0.691406 5.054688 -0.351562 4.578125 -0.125 C 4.097656 0.101562 3.503906 0.21875 2.796875 0.21875 Z M 3.28125 -1.03125 C 4.101562 -1.03125 4.804688 -1.304688 5.390625 -1.859375 C 5.984375 -2.410156 6.359375 -3.144531 6.515625 -4.0625 L 6.5625 -4.375 C 5.5625 -4.28125 4.703125 -4.164062 3.984375 -4.03125 C 3.273438 -3.90625 2.734375 -3.707031 2.359375 -3.4375 C 1.984375 -3.175781 1.796875 -2.785156 1.796875 -2.265625 C 1.796875 -1.859375 1.941406 -1.550781 2.234375 -1.34375 C 2.523438 -1.132812 2.875 -1.03125 3.28125 -1.03125 Z M 3.28125 -1.03125 "/></g></g></g><g fill="#289db9" fill-opacity="1"><g transform="translate(182.28758, 224.443989)"><g><path d="M 0.140625 0 L 2.046875 -9 L 3.203125 -9 L 3.3125 -7.75 C 3.613281 -8.132812 4.007812 -8.460938 4.5 -8.734375 C 5 -9.003906 5.648438 -9.140625 6.453125 -9.140625 C 7.210938 -9.140625 7.804688 -8.929688 8.234375 -8.515625 C 8.671875 -8.109375 8.890625 -7.476562 8.890625 -6.625 C 8.890625 -6.207031 8.832031 -5.734375 8.71875 -5.203125 L 7.59375 0 L 6.0625 0 L 7.125 -5.0625 C 7.238281 -5.59375 7.296875 -6.03125 7.296875 -6.375 C 7.296875 -6.90625 7.171875 -7.273438 6.921875 -7.484375 C 6.679688 -7.691406 6.300781 -7.796875 5.78125 -7.796875 C 5.351562 -7.796875 4.929688 -7.695312 4.515625 -7.5 C 4.109375 -7.3125 3.742188 -6.988281 3.421875 -6.53125 C 3.097656 -6.070312 2.851562 -5.445312 2.6875 -4.65625 L 1.703125 0 Z M 0.140625 0 "/></g></g></g><g fill="#289db9" fill-opacity="1"><g transform="translate(192.26495, 224.443989)"><g><path d="M 4.15625 -10.71875 C 3.851562 -10.71875 3.585938 -10.828125 3.359375 -11.046875 C 3.140625 -11.273438 3.03125 -11.539062 3.03125 -11.84375 C 3.03125 -12.15625 3.140625 -12.421875 3.359375 -12.640625 C 3.585938 -12.867188 3.851562 -12.984375 4.15625 -12.984375 C 4.46875 -12.984375 4.734375 -12.867188 4.953125 -12.640625 C 5.179688 -12.421875 5.296875 -12.15625 5.296875 -11.84375 C 5.296875 -11.539062 5.179688 -11.273438 4.953125 -11.046875 C 4.734375 -10.828125 4.46875 -10.71875 4.15625 -10.71875 Z M 0.828125 0 L 2.484375 -7.765625 L 1.03125 -7.765625 L 1.28125 -9 L 4.296875 -9 L 2.390625 0 Z M 0.828125 0 "/></g></g></g><g fill="#289db9" fill-opacity="1"><g transform="translate(197.162929, 224.443989)"><g><path d="M 2.90625 0 C 2.195312 0 1.710938 -0.0976562 1.453125 -0.296875 C 1.191406 -0.492188 1.0625 -0.800781 1.0625 -1.21875 C 1.0625 -1.476562 1.125 -1.890625 1.25 -2.453125 L 2.390625 -7.765625 L 0.890625 -7.765625 L 1.140625 -9 L 2.65625 -9 L 3.140625 -11.25 L 4.703125 -11.25 L 4.203125 -9 L 5.9375 -9 L 5.671875 -7.765625 L 3.953125 -7.765625 L 2.90625 -2.890625 C 2.851562 -2.671875 2.8125 -2.472656 2.78125 -2.296875 C 2.75 -2.117188 2.734375 -1.984375 2.734375 -1.890625 C 2.734375 -1.691406 2.785156 -1.550781 2.890625 -1.46875 C 3.003906 -1.394531 3.210938 -1.359375 3.515625 -1.359375 L 4.3125 -1.359375 L 4.03125 0 Z M 2.90625 0 "/></g></g></g><g fill="#289db9" fill-opacity="1"><g transform="translate(203.040512, 224.443989)"><g><path d="M 2.796875 0.21875 C 2.015625 0.21875 1.367188 0.0078125 0.859375 -0.40625 C 0.347656 -0.832031 0.09375 -1.40625 0.09375 -2.125 C 0.09375 -2.726562 0.25 -3.226562 0.5625 -3.625 C 0.882812 -4.03125 1.300781 -4.351562 1.8125 -4.59375 C 2.332031 -4.832031 2.890625 -5.015625 3.484375 -5.140625 C 4.085938 -5.265625 4.671875 -5.359375 5.234375 -5.421875 C 5.804688 -5.484375 6.300781 -5.539062 6.71875 -5.59375 C 6.75 -5.757812 6.773438 -5.914062 6.796875 -6.0625 C 6.828125 -6.207031 6.84375 -6.34375 6.84375 -6.46875 C 6.84375 -7.425781 6.285156 -7.90625 5.171875 -7.90625 C 4.609375 -7.90625 4.132812 -7.78125 3.75 -7.53125 C 3.363281 -7.289062 3.066406 -6.953125 2.859375 -6.515625 L 1.5 -6.9375 C 1.820312 -7.613281 2.285156 -8.148438 2.890625 -8.546875 C 3.492188 -8.941406 4.226562 -9.140625 5.09375 -9.140625 C 6.144531 -9.140625 6.953125 -8.925781 7.515625 -8.5 C 8.085938 -8.082031 8.375 -7.429688 8.375 -6.546875 C 8.375 -6.335938 8.359375 -6.128906 8.328125 -5.921875 C 8.304688 -5.722656 8.253906 -5.4375 8.171875 -5.0625 C 8.085938 -4.6875 7.96875 -4.132812 7.8125 -3.40625 C 7.65625 -2.65625 7.550781 -2.003906 7.5 -1.453125 C 7.445312 -0.910156 7.414062 -0.425781 7.40625 0 L 5.96875 0 L 5.890625 -1.140625 C 5.492188 -0.691406 5.054688 -0.351562 4.578125 -0.125 C 4.097656 0.101562 3.503906 0.21875 2.796875 0.21875 Z M 3.28125 -1.03125 C 4.101562 -1.03125 4.804688 -1.304688 5.390625 -1.859375 C 5.984375 -2.410156 6.359375 -3.144531 6.515625 -4.0625 L 6.5625 -4.375 C 5.5625 -4.28125 4.703125 -4.164062 3.984375 -4.03125 C 3.273438 -3.90625 2.734375 -3.707031 2.359375 -3.4375 C 1.984375 -3.175781 1.796875 -2.785156 1.796875 -2.265625 C 1.796875 -1.859375 1.941406 -1.550781 2.234375 -1.34375 C 2.523438 -1.132812 2.875 -1.03125 3.28125 -1.03125 Z M 3.28125 -1.03125 "/></g></g></g><g fill="#289db9" fill-opacity="1"><g transform="translate(212.491797, 224.443989)"><g><path d="M 0.140625 0 L 2.046875 -9 L 3.1875 -9 L 3.34375 -7.3125 C 3.71875 -7.84375 4.15625 -8.28125 4.65625 -8.625 C 5.15625 -8.96875 5.851562 -9.140625 6.75 -9.140625 L 6.953125 -9.140625 L 6.609375 -7.53125 C 6.265625 -7.539062 5.945312 -7.519531 5.65625 -7.46875 C 4.738281 -7.320312 4.035156 -6.914062 3.546875 -6.25 C 3.054688 -5.582031 2.703125 -4.738281 2.484375 -3.71875 L 1.703125 0 Z M 0.140625 0 "/></g></g></g><g fill="#289db9" fill-opacity="1"><g transform="translate(218.895453, 224.443989)"><g><path d="M 4.15625 -10.71875 C 3.851562 -10.71875 3.585938 -10.828125 3.359375 -11.046875 C 3.140625 -11.273438 3.03125 -11.539062 3.03125 -11.84375 C 3.03125 -12.15625 3.140625 -12.421875 3.359375 -12.640625 C 3.585938 -12.867188 3.851562 -12.984375 4.15625 -12.984375 C 4.46875 -12.984375 4.734375 -12.867188 4.953125 -12.640625 C 5.179688 -12.421875 5.296875 -12.15625 5.296875 -11.84375 C 5.296875 -11.539062 5.179688 -11.273438 4.953125 -11.046875 C 4.734375 -10.828125 4.46875 -10.71875 4.15625 -10.71875 Z M 0.828125 0 L 2.484375 -7.765625 L 1.03125 -7.765625 L 1.28125 -9 L 4.296875 -9 L 2.390625 0 Z M 0.828125 0 "/></g></g></g><g fill="#289db9" fill-opacity="1"><g transform="translate(223.793432, 224.443989)"><g><path d="M 2.796875 0.21875 C 2.015625 0.21875 1.367188 0.0078125 0.859375 -0.40625 C 0.347656 -0.832031 0.09375 -1.40625 0.09375 -2.125 C 0.09375 -2.726562 0.25 -3.226562 0.5625 -3.625 C 0.882812 -4.03125 1.300781 -4.351562 1.8125 -4.59375 C 2.332031 -4.832031 2.890625 -5.015625 3.484375 -5.140625 C 4.085938 -5.265625 4.671875 -5.359375 5.234375 -5.421875 C 5.804688 -5.484375 6.300781 -5.539062 6.71875 -5.59375 C 6.75 -5.757812 6.773438 -5.914062 6.796875 -6.0625 C 6.828125 -6.207031 6.84375 -6.34375 6.84375 -6.46875 C 6.84375 -7.425781 6.285156 -7.90625 5.171875 -7.90625 C 4.609375 -7.90625 4.132812 -7.78125 3.75 -7.53125 C 3.363281 -7.289062 3.066406 -6.953125 2.859375 -6.515625 L 1.5 -6.9375 C 1.820312 -7.613281 2.285156 -8.148438 2.890625 -8.546875 C 3.492188 -8.941406 4.226562 -9.140625 5.09375 -9.140625 C 6.144531 -9.140625 6.953125 -8.925781 7.515625 -8.5 C 8.085938 -8.082031 8.375 -7.429688 8.375 -6.546875 C 8.375 -6.335938 8.359375 -6.128906 8.328125 -5.921875 C 8.304688 -5.722656 8.253906 -5.4375 8.171875 -5.0625 C 8.085938 -4.6875 7.96875 -4.132812 7.8125 -3.40625 C 7.65625 -2.65625 7.550781 -2.003906 7.5 -1.453125 C 7.445312 -0.910156 7.414062 -0.425781 7.40625 0 L 5.96875 0 L 5.890625 -1.140625 C 5.492188 -0.691406 5.054688 -0.351562 4.578125 -0.125 C 4.097656 0.101562 3.503906 0.21875 2.796875 0.21875 Z M 3.28125 -1.03125 C 4.101562 -1.03125 4.804688 -1.304688 5.390625 -1.859375 C 5.984375 -2.410156 6.359375 -3.144531 6.515625 -4.0625 L 6.5625 -4.375 C 5.5625 -4.28125 4.703125 -4.164062 3.984375 -4.03125 C 3.273438 -3.90625 2.734375 -3.707031 2.359375 -3.4375 C 1.984375 -3.175781 1.796875 -2.785156 1.796875 -2.265625 C 1.796875 -1.859375 1.941406 -1.550781 2.234375 -1.34375 C 2.523438 -1.132812 2.875 -1.03125 3.28125 -1.03125 Z M 3.28125 -1.03125 "/></g></g></g><g fill="#289db9" fill-opacity="1"><g transform="translate(233.244718, 224.443989)"><g><path d="M 0.140625 0 L 2.046875 -9 L 3.203125 -9 L 3.3125 -7.75 C 3.613281 -8.132812 4.007812 -8.460938 4.5 -8.734375 C 5 -9.003906 5.648438 -9.140625 6.453125 -9.140625 C 7.210938 -9.140625 7.804688 -8.929688 8.234375 -8.515625 C 8.671875 -8.109375 8.890625 -7.476562 8.890625 -6.625 C 8.890625 -6.207031 8.832031 -5.734375 8.71875 -5.203125 L 7.59375 0 L 6.0625 0 L 7.125 -5.0625 C 7.238281 -5.59375 7.296875 -6.03125 7.296875 -6.375 C 7.296875 -6.90625 7.171875 -7.273438 6.921875 -7.484375 C 6.679688 -7.691406 6.300781 -7.796875 5.78125 -7.796875 C 5.351562 -7.796875 4.929688 -7.695312 4.515625 -7.5 C 4.109375 -7.3125 3.742188 -6.988281 3.421875 -6.53125 C 3.097656 -6.070312 2.851562 -5.445312 2.6875 -4.65625 L 1.703125 0 Z M 0.140625 0 "/></g></g></g><g fill="#289db9" fill-opacity="1"><g transform="translate(243.222089, 224.443989)"><g/></g></g><g fill="#289db9" fill-opacity="1"><g transform="translate(248.30148, 224.443989)"><g><path d="M 5.65625 0.21875 C 4.675781 0.21875 3.835938 0 3.140625 -0.4375 C 2.453125 -0.882812 1.921875 -1.488281 1.546875 -2.25 C 1.179688 -3.019531 1 -3.890625 1 -4.859375 C 1 -5.910156 1.160156 -6.882812 1.484375 -7.78125 C 1.816406 -8.6875 2.28125 -9.476562 2.875 -10.15625 C 3.46875 -10.84375 4.1875 -11.375 5.03125 -11.75 C 5.882812 -12.132812 6.828125 -12.328125 7.859375 -12.328125 C 8.847656 -12.328125 9.6875 -12.101562 10.375 -11.65625 C 11.070312 -11.21875 11.601562 -10.613281 11.96875 -9.84375 C 12.34375 -9.082031 12.53125 -8.226562 12.53125 -7.28125 C 12.53125 -6.238281 12.363281 -5.265625 12.03125 -4.359375 C 11.695312 -3.453125 11.222656 -2.65625 10.609375 -1.96875 C 10.003906 -1.28125 9.28125 -0.742188 8.4375 -0.359375 C 7.601562 0.0234375 6.675781 0.21875 5.65625 0.21875 Z M 5.890625 -1.21875 C 6.648438 -1.21875 7.335938 -1.382812 7.953125 -1.71875 C 8.566406 -2.050781 9.082031 -2.5 9.5 -3.0625 C 9.925781 -3.632812 10.25 -4.28125 10.46875 -5 C 10.695312 -5.71875 10.8125 -6.460938 10.8125 -7.234375 C 10.8125 -8.023438 10.664062 -8.691406 10.375 -9.234375 C 10.09375 -9.773438 9.710938 -10.1875 9.234375 -10.46875 C 8.753906 -10.75 8.21875 -10.890625 7.625 -10.890625 C 6.851562 -10.890625 6.164062 -10.722656 5.5625 -10.390625 C 4.957031 -10.066406 4.441406 -9.625 4.015625 -9.0625 C 3.597656 -8.507812 3.273438 -7.875 3.046875 -7.15625 C 2.828125 -6.4375 2.71875 -5.675781 2.71875 -4.875 C 2.71875 -4.09375 2.859375 -3.425781 3.140625 -2.875 C 3.429688 -2.320312 3.8125 -1.90625 4.28125 -1.625 C 4.757812 -1.351562 5.296875 -1.21875 5.890625 -1.21875 Z M 5.890625 -1.21875 "/></g></g></g><g fill="#289db9" fill-opacity="1"><g transform="translate(261.507892, 224.443989)"><g><path d="M 0.140625 0 L 2.046875 -9 L 3.1875 -9 L 3.34375 -7.3125 C 3.71875 -7.84375 4.15625 -8.28125 4.65625 -8.625 C 5.15625 -8.96875 5.851562 -9.140625 6.75 -9.140625 L 6.953125 -9.140625 L 6.609375 -7.53125 C 6.265625 -7.539062 5.945312 -7.519531 5.65625 -7.46875 C 4.738281 -7.320312 4.035156 -6.914062 3.546875 -6.25 C 3.054688 -5.582031 2.703125 -4.738281 2.484375 -3.71875 L 1.703125 0 Z M 0.140625 0 "/></g></g></g><g fill="#289db9" fill-opacity="1"><g transform="translate(267.911548, 224.443989)"><g><path d="M 3.265625 3.453125 C 2.503906 3.453125 1.8125 3.269531 1.1875 2.90625 C 0.5625 2.539062 0.140625 2.046875 -0.078125 1.421875 L 1.5625 0.96875 C 1.625 1.25 1.804688 1.507812 2.109375 1.75 C 2.410156 2 2.832031 2.125 3.375 2.125 C 4.007812 2.125 4.515625 2.007812 4.890625 1.78125 C 5.265625 1.5625 5.550781 1.257812 5.75 0.875 C 5.945312 0.488281 6.097656 0.0546875 6.203125 -0.421875 L 6.4375 -1.453125 C 6.132812 -1.066406 5.765625 -0.773438 5.328125 -0.578125 C 4.898438 -0.390625 4.445312 -0.296875 3.96875 -0.296875 C 3.414062 -0.296875 2.878906 -0.429688 2.359375 -0.703125 C 1.835938 -0.972656 1.410156 -1.382812 1.078125 -1.9375 C 0.742188 -2.5 0.578125 -3.195312 0.578125 -4.03125 C 0.578125 -4.957031 0.75 -5.8125 1.09375 -6.59375 C 1.4375 -7.375 1.925781 -8 2.5625 -8.46875 C 3.195312 -8.9375 3.953125 -9.171875 4.828125 -9.171875 C 5.460938 -9.171875 6.046875 -9.03125 6.578125 -8.75 C 7.117188 -8.46875 7.503906 -8.078125 7.734375 -7.578125 L 8.453125 -9 L 9.578125 -9 C 9.285156 -7.644531 9 -6.289062 8.71875 -4.9375 C 8.4375 -3.582031 8.148438 -2.222656 7.859375 -0.859375 C 7.796875 -0.585938 7.722656 -0.265625 7.640625 0.109375 C 7.554688 0.484375 7.425781 0.863281 7.25 1.25 C 7.070312 1.632812 6.820312 1.992188 6.5 2.328125 C 6.175781 2.660156 5.75 2.929688 5.21875 3.140625 C 4.695312 3.347656 4.046875 3.453125 3.265625 3.453125 Z M 4.5 -1.609375 C 5.0625 -1.609375 5.546875 -1.796875 5.953125 -2.171875 C 6.367188 -2.554688 6.6875 -3.035156 6.90625 -3.609375 C 7.132812 -4.191406 7.25 -4.78125 7.25 -5.375 C 7.25 -6.175781 7.023438 -6.785156 6.578125 -7.203125 C 6.128906 -7.628906 5.601562 -7.84375 5 -7.84375 C 4.382812 -7.84375 3.867188 -7.660156 3.453125 -7.296875 C 3.035156 -6.929688 2.71875 -6.460938 2.5 -5.890625 C 2.289062 -5.328125 2.1875 -4.726562 2.1875 -4.09375 C 2.1875 -3.320312 2.398438 -2.710938 2.828125 -2.265625 C 3.253906 -1.828125 3.8125 -1.609375 4.5 -1.609375 Z M 4.5 -1.609375 "/></g></g></g><g fill="#289db9" fill-opacity="1"><g transform="translate(277.979624, 224.443989)"><g><path d="M 2.796875 0.21875 C 2.015625 0.21875 1.367188 0.0078125 0.859375 -0.40625 C 0.347656 -0.832031 0.09375 -1.40625 0.09375 -2.125 C 0.09375 -2.726562 0.25 -3.226562 0.5625 -3.625 C 0.882812 -4.03125 1.300781 -4.351562 1.8125 -4.59375 C 2.332031 -4.832031 2.890625 -5.015625 3.484375 -5.140625 C 4.085938 -5.265625 4.671875 -5.359375 5.234375 -5.421875 C 5.804688 -5.484375 6.300781 -5.539062 6.71875 -5.59375 C 6.75 -5.757812 6.773438 -5.914062 6.796875 -6.0625 C 6.828125 -6.207031 6.84375 -6.34375 6.84375 -6.46875 C 6.84375 -7.425781 6.285156 -7.90625 5.171875 -7.90625 C 4.609375 -7.90625 4.132812 -7.78125 3.75 -7.53125 C 3.363281 -7.289062 3.066406 -6.953125 2.859375 -6.515625 L 1.5 -6.9375 C 1.820312 -7.613281 2.285156 -8.148438 2.890625 -8.546875 C 3.492188 -8.941406 4.226562 -9.140625 5.09375 -9.140625 C 6.144531 -9.140625 6.953125 -8.925781 7.515625 -8.5 C 8.085938 -8.082031 8.375 -7.429688 8.375 -6.546875 C 8.375 -6.335938 8.359375 -6.128906 8.328125 -5.921875 C 8.304688 -5.722656 8.253906 -5.4375 8.171875 -5.0625 C 8.085938 -4.6875 7.96875 -4.132812 7.8125 -3.40625 C 7.65625 -2.65625 7.550781 -2.003906 7.5 -1.453125 C 7.445312 -0.910156 7.414062 -0.425781 7.40625 0 L 5.96875 0 L 5.890625 -1.140625 C 5.492188 -0.691406 5.054688 -0.351562 4.578125 -0.125 C 4.097656 0.101562 3.503906 0.21875 2.796875 0.21875 Z M 3.28125 -1.03125 C 4.101562 -1.03125 4.804688 -1.304688 5.390625 -1.859375 C 5.984375 -2.410156 6.359375 -3.144531 6.515625 -4.0625 L 6.5625 -4.375 C 5.5625 -4.28125 4.703125 -4.164062 3.984375 -4.03125 C 3.273438 -3.90625 2.734375 -3.707031 2.359375 -3.4375 C 1.984375 -3.175781 1.796875 -2.785156 1.796875 -2.265625 C 1.796875 -1.859375 1.941406 -1.550781 2.234375 -1.34375 C 2.523438 -1.132812 2.875 -1.03125 3.28125 -1.03125 Z M 3.28125 -1.03125 "/></g></g></g><g fill="#289db9" fill-opacity="1"><g transform="translate(287.43091, 224.443989)"><g><path d="M 0.140625 0 L 2.046875 -9 L 3.203125 -9 L 3.3125 -7.75 C 3.613281 -8.132812 4.007812 -8.460938 4.5 -8.734375 C 5 -9.003906 5.648438 -9.140625 6.453125 -9.140625 C 7.210938 -9.140625 7.804688 -8.929688 8.234375 -8.515625 C 8.671875 -8.109375 8.890625 -7.476562 8.890625 -6.625 C 8.890625 -6.207031 8.832031 -5.734375 8.71875 -5.203125 L 7.59375 0 L 6.0625 0 L 7.125 -5.0625 C 7.238281 -5.59375 7.296875 -6.03125 7.296875 -6.375 C 7.296875 -6.90625 7.171875 -7.273438 6.921875 -7.484375 C 6.679688 -7.691406 6.300781 -7.796875 5.78125 -7.796875 C 5.351562 -7.796875 4.929688 -7.695312 4.515625 -7.5 C 4.109375 -7.3125 3.742188 -6.988281 3.421875 -6.53125 C 3.097656 -6.070312 2.851562 -5.445312 2.6875 -4.65625 L 1.703125 0 Z M 0.140625 0 "/></g></g></g><g fill="#289db9" fill-opacity="1"><g transform="translate(297.40828, 224.443989)"><g><path d="M 4.15625 -10.71875 C 3.851562 -10.71875 3.585938 -10.828125 3.359375 -11.046875 C 3.140625 -11.273438 3.03125 -11.539062 3.03125 -11.84375 C 3.03125 -12.15625 3.140625 -12.421875 3.359375 -12.640625 C 3.585938 -12.867188 3.851562 -12.984375 4.15625 -12.984375 C 4.46875 -12.984375 4.734375 -12.867188 4.953125 -12.640625 C 5.179688 -12.421875 5.296875 -12.15625 5.296875 -11.84375 C 5.296875 -11.539062 5.179688 -11.273438 4.953125 -11.046875 C 4.734375 -10.828125 4.46875 -10.71875 4.15625 -10.71875 Z M 0.828125 0 L 2.484375 -7.765625 L 1.03125 -7.765625 L 1.28125 -9 L 4.296875 -9 L 2.390625 0 Z M 0.828125 0 "/></g></g></g><g fill="#289db9" fill-opacity="1"><g transform="translate(302.30626, 224.443989)"><g><path d="M -0.375 0 L -0.109375 -1.328125 L 6.4375 -7.6875 L 1.5 -7.6875 L 1.796875 -9.015625 L 8.640625 -9.015625 L 8.34375 -7.6875 L 1.828125 -1.328125 L 7.078125 -1.328125 L 6.796875 0 Z M -0.375 0 "/></g></g></g><g fill="#289db9" fill-opacity="1"><g transform="translate(310.777954, 224.443989)"><g><path d="M 2.796875 0.21875 C 2.015625 0.21875 1.367188 0.0078125 0.859375 -0.40625 C 0.347656 -0.832031 0.09375 -1.40625 0.09375 -2.125 C 0.09375 -2.726562 0.25 -3.226562 0.5625 -3.625 C 0.882812 -4.03125 1.300781 -4.351562 1.8125 -4.59375 C 2.332031 -4.832031 2.890625 -5.015625 3.484375 -5.140625 C 4.085938 -5.265625 4.671875 -5.359375 5.234375 -5.421875 C 5.804688 -5.484375 6.300781 -5.539062 6.71875 -5.59375 C 6.75 -5.757812 6.773438 -5.914062 6.796875 -6.0625 C 6.828125 -6.207031 6.84375 -6.34375 6.84375 -6.46875 C 6.84375 -7.425781 6.285156 -7.90625 5.171875 -7.90625 C 4.609375 -7.90625 4.132812 -7.78125 3.75 -7.53125 C 3.363281 -7.289062 3.066406 -6.953125 2.859375 -6.515625 L 1.5 -6.9375 C 1.820312 -7.613281 2.285156 -8.148438 2.890625 -8.546875 C 3.492188 -8.941406 4.226562 -9.140625 5.09375 -9.140625 C 6.144531 -9.140625 6.953125 -8.925781 7.515625 -8.5 C 8.085938 -8.082031 8.375 -7.429688 8.375 -6.546875 C 8.375 -6.335938 8.359375 -6.128906 8.328125 -5.921875 C 8.304688 -5.722656 8.253906 -5.4375 8.171875 -5.0625 C 8.085938 -4.6875 7.96875 -4.132812 7.8125 -3.40625 C 7.65625 -2.65625 7.550781 -2.003906 7.5 -1.453125 C 7.445312 -0.910156 7.414062 -0.425781 7.40625 0 L 5.96875 0 L 5.890625 -1.140625 C 5.492188 -0.691406 5.054688 -0.351562 4.578125 -0.125 C 4.097656 0.101562 3.503906 0.21875 2.796875 0.21875 Z M 3.28125 -1.03125 C 4.101562 -1.03125 4.804688 -1.304688 5.390625 -1.859375 C 5.984375 -2.410156 6.359375 -3.144531 6.515625 -4.0625 L 6.5625 -4.375 C 5.5625 -4.28125 4.703125 -4.164062 3.984375 -4.03125 C 3.273438 -3.90625 2.734375 -3.707031 2.359375 -3.4375 C 1.984375 -3.175781 1.796875 -2.785156 1.796875 -2.265625 C 1.796875 -1.859375 1.941406 -1.550781 2.234375 -1.34375 C 2.523438 -1.132812 2.875 -1.03125 3.28125 -1.03125 Z M 3.28125 -1.03125 "/></g></g></g><g fill="#289db9" fill-opacity="1"><g transform="translate(320.22924, 224.443989)"><g><path d="M 2.90625 0 C 2.195312 0 1.710938 -0.0976562 1.453125 -0.296875 C 1.191406 -0.492188 1.0625 -0.800781 1.0625 -1.21875 C 1.0625 -1.476562 1.125 -1.890625 1.25 -2.453125 L 2.390625 -7.765625 L 0.890625 -7.765625 L 1.140625 -9 L 2.65625 -9 L 3.140625 -11.25 L 4.703125 -11.25 L 4.203125 -9 L 5.9375 -9 L 5.671875 -7.765625 L 3.953125 -7.765625 L 2.90625 -2.890625 C 2.851562 -2.671875 2.8125 -2.472656 2.78125 -2.296875 C 2.75 -2.117188 2.734375 -1.984375 2.734375 -1.890625 C 2.734375 -1.691406 2.785156 -1.550781 2.890625 -1.46875 C 3.003906 -1.394531 3.210938 -1.359375 3.515625 -1.359375 L 4.3125 -1.359375 L 4.03125 0 Z M 2.90625 0 "/></g></g></g><g fill="#289db9" fill-opacity="1"><g transform="translate(326.106822, 224.443989)"><g><path d="M 4.15625 -10.71875 C 3.851562 -10.71875 3.585938 -10.828125 3.359375 -11.046875 C 3.140625 -11.273438 3.03125 -11.539062 3.03125 -11.84375 C 3.03125 -12.15625 3.140625 -12.421875 3.359375 -12.640625 C 3.585938 -12.867188 3.851562 -12.984375 4.15625 -12.984375 C 4.46875 -12.984375 4.734375 -12.867188 4.953125 -12.640625 C 5.179688 -12.421875 5.296875 -12.15625 5.296875 -11.84375 C 5.296875 -11.539062 5.179688 -11.273438 4.953125 -11.046875 C 4.734375 -10.828125 4.46875 -10.71875 4.15625 -10.71875 Z M 0.828125 0 L 2.484375 -7.765625 L 1.03125 -7.765625 L 1.28125 -9 L 4.296875 -9 L 2.390625 0 Z M 0.828125 0 "/></g></g></g><g fill="#289db9" fill-opacity="1"><g transform="translate(331.004801, 224.443989)"><g><path d="M 4.171875 0.21875 C 2.960938 0.21875 2.046875 -0.132812 1.421875 -0.84375 C 0.796875 -1.5625 0.484375 -2.484375 0.484375 -3.609375 C 0.484375 -4.660156 0.695312 -5.601562 1.125 -6.4375 C 1.550781 -7.269531 2.140625 -7.925781 2.890625 -8.40625 C 3.648438 -8.894531 4.519531 -9.140625 5.5 -9.140625 C 6.113281 -9.140625 6.695312 -9.003906 7.25 -8.734375 C 7.800781 -8.472656 8.25 -8.066406 8.59375 -7.515625 C 8.9375 -6.960938 9.109375 -6.257812 9.109375 -5.40625 C 9.109375 -4.644531 8.984375 -3.925781 8.734375 -3.25 C 8.492188 -2.570312 8.15625 -1.972656 7.71875 -1.453125 C 7.289062 -0.929688 6.773438 -0.519531 6.171875 -0.21875 C 5.566406 0.0703125 4.898438 0.21875 4.171875 0.21875 Z M 4.296875 -1.125 C 4.992188 -1.125 5.578125 -1.332031 6.046875 -1.75 C 6.523438 -2.175781 6.882812 -2.71875 7.125 -3.375 C 7.363281 -4.039062 7.484375 -4.734375 7.484375 -5.453125 C 7.484375 -6.335938 7.269531 -6.945312 6.84375 -7.28125 C 6.414062 -7.625 5.890625 -7.796875 5.265625 -7.796875 C 4.546875 -7.796875 3.953125 -7.585938 3.484375 -7.171875 C 3.015625 -6.765625 2.664062 -6.238281 2.4375 -5.59375 C 2.207031 -4.957031 2.09375 -4.289062 2.09375 -3.59375 C 2.09375 -2.851562 2.273438 -2.253906 2.640625 -1.796875 C 3.015625 -1.347656 3.566406 -1.125 4.296875 -1.125 Z M 4.296875 -1.125 "/></g></g></g><g fill="#289db9" fill-opacity="1"><g transform="translate(340.927744, 224.443989)"><g><path d="M 0.140625 0 L 2.046875 -9 L 3.203125 -9 L 3.3125 -7.75 C 3.613281 -8.132812 4.007812 -8.460938 4.5 -8.734375 C 5 -9.003906 5.648438 -9.140625 6.453125 -9.140625 C 7.210938 -9.140625 7.804688 -8.929688 8.234375 -8.515625 C 8.671875 -8.109375 8.890625 -7.476562 8.890625 -6.625 C 8.890625 -6.207031 8.832031 -5.734375 8.71875 -5.203125 L 7.59375 0 L 6.0625 0 L 7.125 -5.0625 C 7.238281 -5.59375 7.296875 -6.03125 7.296875 -6.375 C 7.296875 -6.90625 7.171875 -7.273438 6.921875 -7.484375 C 6.679688 -7.691406 6.300781 -7.796875 5.78125 -7.796875 C 5.351562 -7.796875 4.929688 -7.695312 4.515625 -7.5 C 4.109375 -7.3125 3.742188 -6.988281 3.421875 -6.53125 C 3.097656 -6.070312 2.851562 -5.445312 2.6875 -4.65625 L 1.703125 0 Z M 0.140625 0 "/></g></g></g></svg>